<svg width="26" height="26" viewBox="0 0 26 26" fill="none" xmlns="http://www.w3.org/2000/svg">
<circle cx="13" cy="13.0005" r="13" fill="white"/>
<path d="M17.4573 12.3028H13.6977V8.54312C13.6977 8.37186 13.4651 8.00049 13 8.00049C12.5349 8.00049 12.3023 8.37188 12.3023 8.54312V12.3028H8.54263C8.37139 12.3028 8 12.5354 8 13.0005C8 13.4656 8.37139 13.6981 8.54263 13.6981H12.3023V17.4579C12.3023 17.6291 12.5349 18.0005 13 18.0005C13.4651 18.0005 13.6977 17.6291 13.6977 17.4579V13.6981H17.4574C17.6286 13.6981 18 13.4656 18 13.0005C18 12.5353 17.6286 12.3028 17.4573 12.3028Z" fill="url(#paint0_linear)"/>
<defs>
<linearGradient id="paint0_linear" x1="13" y1="8.00049" x2="13" y2="18.0005" gradientUnits="userSpaceOnUse">
<stop stop-color="#4E3D95"/>
<stop offset="1" stop-color="#3A2E60"/>
</linearGradient>
</defs>
</svg>
