<svg width="66" height="71" viewBox="0 0 66 71" fill="none" xmlns="http://www.w3.org/2000/svg">
<g filter="url(#filter0_f)">
<circle cx="33" cy="38" r="13" fill="#392E66"/>
</g>
<circle cx="33" cy="25" r="25" fill="url(#paint0_linear)"/>
<path d="M46.7996 28.5291C46.7996 28.1144 46.5555 27.7679 46.2081 27.5964V21.1625C46.2869 21.1327 46.3359 21.0584 46.335 20.9752C46.335 20.8921 46.2808 20.8186 46.2046 20.7915L32.93 16.1094C32.7603 16.049 32.5748 16.049 32.4041 16.1094L19.1313 20.7924C19.0534 20.8195 19.0009 20.893 19 20.9761C18.9991 21.0592 19.049 21.1336 19.126 21.1634L32.3805 26.3224C32.5651 26.3932 32.769 26.3932 32.9536 26.3224L45.2929 21.5169V27.5955C44.9464 27.7661 44.7023 28.1152 44.7023 28.5274C44.7023 28.9579 44.9648 29.3315 45.3401 29.4916C44.9648 30.2327 44.7023 31.7535 44.7023 32.1875C44.7023 32.7659 45.1721 33.2349 45.7505 33.2349C46.328 33.2349 46.7979 32.7659 46.7979 32.1875C46.7979 31.7535 46.5345 30.2327 46.16 29.4916C46.5363 29.3332 46.7996 28.9596 46.7996 28.5291Z" fill="white"/>
<path d="M23.2773 23.7612C23.2782 25.2452 23.2791 26.9917 23.2791 27.2691C23.2791 30.0324 27.438 32.282 32.6678 32.4229C37.8968 32.282 42.0557 30.035 42.0557 27.2691C42.0557 26.9935 42.0557 25.2461 42.0575 23.7612L32.9522 27.3059C32.7676 27.3776 32.5637 27.3776 32.3791 27.3059L23.2773 23.7612Z" fill="white"/>
<defs>
<filter id="filter0_f" x="0" y="5" width="66" height="66" filterUnits="userSpaceOnUse" color-interpolation-filters="sRGB">
<feFlood flood-opacity="0" result="BackgroundImageFix"/>
<feBlend mode="normal" in="SourceGraphic" in2="BackgroundImageFix" result="shape"/>
<feGaussianBlur stdDeviation="10" result="effect1_foregroundBlur"/>
</filter>
<linearGradient id="paint0_linear" x1="33" y1="0" x2="33" y2="50" gradientUnits="userSpaceOnUse">
<stop stop-color="#4E3D95"/>
<stop offset="1" stop-color="#3A2E60"/>
</linearGradient>
</defs>
</svg>
