<svg width="11" height="12" viewBox="0 0 11 12" fill="none" xmlns="http://www.w3.org/2000/svg">
<path d="M0.609188 11.5V0.299999H5.40919C6.83852 0.299999 7.96919 0.651999 8.80119 1.356C9.64385 2.04933 10.0652 3.02 10.0652 4.268C10.0652 5.548 9.62252 6.54 8.73719 7.244C7.85185 7.948 6.68919 8.3 5.24919 8.3H3.71319V11.5H0.609188ZM3.71319 5.868H5.18519C5.73985 5.868 6.17185 5.73467 6.48119 5.468C6.80119 5.20133 6.96119 4.83867 6.96119 4.38C6.96119 3.9 6.80119 3.53733 6.48119 3.292C6.17185 3.036 5.73452 2.908 5.16919 2.908H3.71319V5.868Z" fill="white"/>
</svg>
