<svg width="20" height="19" viewBox="0 0 20 19" fill="none" xmlns="http://www.w3.org/2000/svg">
<g clip-path="url(#clip0)">
<path d="M9.42413 16.5445C13.3566 16.5445 16.5445 13.3566 16.5445 9.42413C16.5445 5.49163 13.3566 2.30371 9.42413 2.30371C5.49163 2.30371 2.30371 5.49163 2.30371 9.42413C2.30371 13.3566 5.49163 16.5445 9.42413 16.5445Z" fill="white"/>
<path d="M16.4207 14.9497C14.7492 17.1285 12.1131 18.534 9.14746 18.534H20L16.4207 14.9497Z" fill="#F06A22"/>
<path fill-rule="evenodd" clip-rule="evenodd" d="M16.4206 14.9498C17.5964 13.4172 18.2949 11.502 18.2949 9.42416C18.2949 4.39287 14.1994 0.314209 9.14741 0.314209C4.09544 0.314209 0 4.39287 0 9.42416C0 14.4555 4.09544 18.5341 9.14741 18.5341C12.1131 18.5341 14.7491 17.1286 16.4206 14.9498ZM11.2158 7.09668C11.0387 7.05728 10.8873 6.94325 10.8005 6.78394L9.33132 4.08673C9.25198 3.94107 9.04285 3.94107 8.96351 4.08673L7.49427 6.78394C7.4075 6.94325 7.25609 7.05728 7.07902 7.09668L4.13775 7.75117C3.97919 7.78645 3.91942 7.98097 4.03081 8.0992L6.06251 10.2557C6.1902 10.3912 6.25118 10.5764 6.22903 10.7613L5.86188 13.825C5.84224 13.9889 6.0112 14.11 6.16018 14.0388L8.87835 12.7388C9.04862 12.6573 9.24648 12.6568 9.41723 12.7372L12.1858 14.0419C12.3347 14.112 12.5025 13.991 12.4829 13.8275L12.1151 10.7575C12.0932 10.5748 12.1525 10.3917 12.2773 10.2565L14.2696 8.09859C14.3792 7.97994 14.3188 7.78717 14.1613 7.7521L11.2158 7.09668Z" fill="#F06A22"/>
</g>
<defs>
<clipPath id="clip0">
<rect width="20" height="18.8482" fill="white"/>
</clipPath>
</defs>
</svg>
