<svg width="16" height="16" viewBox="0 0 16 16" fill="none" xmlns="http://www.w3.org/2000/svg">
<path d="M1.46763 6.56942C1.355 6.48741 1.30684 6.34293 1.34775 6.20974L1.40103 6.04322C1.43998 5.91162 1.5571 5.81846 1.69408 5.8101L5.94996 5.4704L7.58172 1.54726C7.63645 1.40982 7.77383 1.32361 7.92139 1.33411H8.09455C8.23366 1.33116 8.35934 1.41674 8.40758 1.54726L10.046 5.4704L14.3019 5.8101C14.4389 5.81846 14.556 5.91162 14.5949 6.04322L14.6482 6.20974C14.6935 6.33872 14.6536 6.48228 14.5483 6.56942L11.3381 9.32694L12.3238 13.4632C12.3563 13.5956 12.3064 13.7346 12.1972 13.8162L12.0041 13.9228C11.8914 13.999 11.7438 13.999 11.6311 13.9228L8.00797 11.7248L4.36483 13.9428C4.25217 14.019 4.10452 14.019 3.99186 13.9428L3.84533 13.8429C3.73614 13.7613 3.68631 13.6223 3.71879 13.4899L4.67786 9.32694L1.46763 6.56942Z" fill="#FBB40D"/>
</svg>
