<svg width="12" height="11" viewBox="0 0 12 11" fill="none" xmlns="http://www.w3.org/2000/svg">
<path d="M0.801183 4.5C1.23074 4.5 0.778934 4.50452 0.778934 4.50452L8.06338 4.46598L5.06514 1.67396C4.91832 1.53765 4.83779 1.35299 4.83779 1.15919C4.83779 0.965379 4.91832 0.782015 5.06514 0.64538L5.53167 0.211681C5.67837 0.0753697 5.87386 0 6.08232 0C6.2909 0 6.48651 0.0748315 6.63321 0.211143L11.7728 4.98625C11.92 5.1231 12.0006 5.30538 12 5.4993C12.0006 5.69429 11.92 5.87669 11.7728 6.01332L6.63321 10.7889C6.48651 10.9251 6.29102 11 6.08232 11C5.87386 11 5.67837 10.925 5.53167 10.7889L5.06514 10.3552C4.91832 10.2191 4.83779 10.0373 4.83779 9.8435C4.83779 9.64981 4.91832 9.47764 5.06514 9.34143L8.09721 6.5338L0.790523 6.57235C0.360961 6.57235 9.53674e-07 6.22834 9.53674e-07 5.82941V5.21601C9.53674e-07 4.81709 0.371622 4.5 0.801183 4.5Z" fill="white"/>
</svg>
