<svg width="20" height="20" viewBox="0 0 20 20" fill="none" xmlns="http://www.w3.org/2000/svg">
<path d="M2.49998 3.12506V0.625004C2.49998 0.279506 2.77949 0 3.12507 0C3.47049 0 3.75 0.279506 3.75 0.625004V3.12506C3.75 3.47048 3.47049 3.74998 3.12507 3.74998C2.77949 3.75002 2.49998 3.47048 2.49998 3.12506ZM13.1251 3.75002C13.4705 3.75002 13.7501 3.47052 13.7501 3.1251V0.625004C13.7501 0.279506 13.4705 0 13.1251 0C12.7796 0 12.4999 0.279506 12.4999 0.625004V3.12506C12.4999 3.47048 12.7796 3.75002 13.1251 3.75002ZM20 14.9998C20 17.7614 17.7613 20 15 20C12.2389 20 10 17.7614 10 14.9998C10 12.2387 12.2388 9.99998 15 9.99998C17.7613 9.99998 20 12.2387 20 14.9998ZM18.7502 14.9998C18.7502 12.9323 17.068 11.2499 15 11.2499C12.9322 11.2499 11.2501 12.9322 11.2501 14.9998C11.2501 17.0678 12.9322 18.75 15 18.75C17.068 18.75 18.7502 17.0678 18.7502 14.9998ZM5.00005 7.50001H2.49998V9.99998H5.00005V7.50001ZM2.49998 13.75H5.00005V11.2499H2.49998V13.75ZM6.24998 9.99998H8.75009V7.50001H6.24998V9.99998ZM6.24998 13.75H8.75009V11.2499H6.24998V13.75ZM1.25005 14.8756V6.24996H15V8.75001H16.2501V3.87459C16.2501 3.11529 15.6445 2.49997 14.8963 2.49997H14.375V3.1251C14.375 3.8135 13.8146 4.37507 13.1252 4.37507C12.4355 4.37507 11.8752 3.8135 11.8752 3.1251V2.49997H4.37496V3.1251C4.37496 3.8135 3.81467 4.37507 3.12511 4.37507C2.43539 4.37507 1.87506 3.8135 1.87506 3.1251V2.49997H1.35438C0.606169 2.49997 0 3.11529 0 3.87459V14.8756C0 15.6324 0.606169 16.2501 1.35438 16.2501H8.75009V14.9999H1.35438C1.29774 14.9998 1.25005 14.9414 1.25005 14.8756ZM12.4999 9.99998V7.50001H10.0001V9.99998H12.4999ZM16.875 14.9998H15V13.1248C15 12.7795 14.7205 12.5 14.375 12.5C14.0295 12.5 13.7501 12.7795 13.7501 13.1248V15.6251C13.7501 15.9704 14.0295 16.2501 14.375 16.2501H16.875C17.2205 16.2501 17.5001 15.9704 17.5001 15.6251C17.5001 15.2796 17.2205 14.9998 16.875 14.9998Z" fill="white"/>
</svg>
