<svg width="721" height="718" viewBox="0 0 721 718" fill="none" xmlns="http://www.w3.org/2000/svg">
<mask id="mask0" mask-type="alpha" maskUnits="userSpaceOnUse" x="-1" y="0" width="792" height="718">
<path d="M384.999 12.9323C542.199 -24.6677 687.832 28.599 740.999 59.9323L790.499 690.932C773.999 700.599 712.699 719.332 599.499 716.932C457.999 713.932 421.499 609.932 402.999 565.432C384.591 521.153 348.36 507.567 273.126 479.355L271.999 478.932C173.7 442.07 -0.000976562 513.353 -0.000976562 332.432C-0.000976562 204.432 188.499 59.9323 384.999 12.9323Z" fill="url(#paint0_linear)"/>
</mask>
<g mask="url(#mask0)">
<path d="M384.999 12.9323C542.199 -24.6677 687.832 28.599 740.999 59.9323L790.499 690.932C773.999 700.599 712.699 719.332 599.499 716.932C457.999 713.932 421.499 609.932 402.999 565.432C384.591 521.153 348.36 507.567 273.126 479.355L271.999 478.932C173.7 442.07 -0.000976562 513.353 -0.000976562 332.432C-0.000976562 204.432 188.499 59.9323 384.999 12.9323Z" fill="url(#paint1_linear)"/>
<path opacity="0.2" d="M561.496 591.32C510.899 723.681 400.251 802.672 351.251 825.622L-130.028 548.936C-128.858 532.21 -112.075 478.58 -54.303 397.864C17.9117 296.969 111.264 322.066 152.635 330.719C193.801 339.329 221.57 319.844 279.234 279.381L280.097 278.775C326.698 246.076 340.105 205.82 340.983 189.78C370.032 156.898 446.662 103.813 520.788 154.527C613.447 217.919 624.741 425.868 561.496 591.32Z" fill="#662A67"/>
<path d="M897.855 563.301C818.678 511.589 714.071 505.226 626.648 555.7C502.808 627.199 460.437 785.664 532.012 909.636C539.269 922.205 547.417 933.912 556.292 944.712C569.098 933.564 563.219 921.937 574.629 915.35C585.778 908.913 604.272 925.425 619.221 911.371C645.417 886.719 608.528 804.056 636.627 776.081C666.909 745.872 845.326 737.019 897.855 563.301Z" fill="url(#paint2_linear)"/>
<path d="M361.97 1017.1C314.843 927.412 295.913 822.071 314.882 714.877C357.922 470.701 581.934 303.19 824.51 325.931L820.354 318.734C576.089 298.359 351.563 467.627 308.152 713.687C289.025 822.293 308.119 928.999 355.721 1019.87C357.822 1018.94 359.87 1018.03 361.97 1017.1Z" fill="#662A67"/>
<path d="M204.19 1107.18C140.368 985.685 114.73 842.98 140.35 697.733C198.669 366.921 502.126 140.052 830.724 170.776L825.093 161.023C494.286 133.452 190.087 362.766 131.251 696.171C105.312 843.272 131.25 987.82 195.737 1110.95C198.545 1109.67 201.353 1108.4 204.19 1107.18Z" fill="#662A67"/>
<path d="M442.861 790.596C436.967 617.717 572.678 472.328 745.513 466.559C804.945 464.582 861.131 479.36 909.496 506.581C909.667 504.952 909.868 503.376 910.092 501.717C861.362 474.707 804.968 460.049 745.349 462.064C570.066 467.925 432.35 615.376 438.316 790.786C440.444 853.187 460.536 910.848 493.366 958.929C495.022 958.668 496.708 958.46 498.364 958.199C465.281 910.403 445.01 852.914 442.861 790.596Z" fill="#662A67"/>
<g opacity="0.5">
<path d="M80.3991 426.8C81.8903 426.8 83.0991 425.591 83.0991 424.1C83.0991 422.609 81.8903 421.4 80.3991 421.4C78.9079 421.4 77.6991 422.609 77.6991 424.1C77.6991 425.591 78.9079 426.8 80.3991 426.8Z" fill="#8118B4"/>
<path d="M20.1991 455.8C20.6961 455.8 21.0991 455.397 21.0991 454.9C21.0991 454.403 20.6961 454 20.1991 454C19.702 454 19.2991 454.403 19.2991 454.9C19.2991 455.397 19.702 455.8 20.1991 455.8Z" fill="#FF73A7"/>
<path d="M-1.80093 472.3C-0.751593 472.3 0.0990677 471.449 0.0990677 470.4C0.0990677 469.351 -0.751593 468.5 -1.80093 468.5C-2.85027 468.5 -3.70093 469.351 -3.70093 470.4C-3.70093 471.449 -2.85027 472.3 -1.80093 472.3Z" fill="#FFA600"/>
<path d="M30.2992 346.8C31.3485 346.8 32.1992 345.949 32.1992 344.9C32.1992 343.851 31.3485 343 30.2992 343C29.2498 343 28.3992 343.851 28.3992 344.9C28.3992 345.949 29.2498 346.8 30.2992 346.8Z" fill="#B8E4FA"/>
<path d="M52.1992 399.8C53.2485 399.8 54.0992 398.949 54.0992 397.9C54.0992 396.851 53.2485 396 52.1992 396C51.1498 396 50.2992 396.851 50.2992 397.9C50.2992 398.949 51.1498 399.8 52.1992 399.8Z" fill="#FFA600"/>
<path d="M0.599098 398.7C1.64844 398.7 2.4991 397.849 2.4991 396.8C2.4991 395.751 1.64844 394.9 0.599098 394.9C-0.450243 394.9 -1.3009 395.751 -1.3009 396.8C-1.3009 397.849 -0.450243 398.7 0.599098 398.7Z" fill="#8118B4"/>
<path d="M3.79917 413.5C4.84851 413.5 5.69917 412.649 5.69917 411.6C5.69917 410.551 4.84851 409.7 3.79917 409.7C2.74983 409.7 1.89917 410.551 1.89917 411.6C1.89917 412.649 2.74983 413.5 3.79917 413.5Z" fill="#8118B4"/>
<path d="M154.399 499.3C154.896 499.3 155.299 498.897 155.299 498.4C155.299 497.903 154.896 497.5 154.399 497.5C153.902 497.5 153.499 497.903 153.499 498.4C153.499 498.897 153.902 499.3 154.399 499.3Z" fill="#FF73A7"/>
<path d="M129.199 509.6C130.249 509.6 131.099 508.749 131.099 507.7C131.099 506.651 130.249 505.8 129.199 505.8C128.15 505.8 127.299 506.651 127.299 507.7C127.299 508.749 128.15 509.6 129.199 509.6Z" fill="#FFA600"/>
<path d="M74.9992 463.8C75.8828 463.8 76.5992 463.084 76.5992 462.2C76.5992 461.316 75.8828 460.6 74.9992 460.6C74.1155 460.6 73.3992 461.316 73.3992 462.2C73.3992 463.084 74.1155 463.8 74.9992 463.8Z" fill="#FF73A7"/>
<path d="M213.299 573C214.68 573 215.799 571.881 215.799 570.5C215.799 569.119 214.68 568 213.299 568C211.918 568 210.799 569.119 210.799 570.5C210.799 571.881 211.918 573 213.299 573Z" fill="#FFA600"/>
<path d="M188.799 595C189.849 595 190.699 594.149 190.699 593.1C190.699 592.051 189.849 591.2 188.799 591.2C187.75 591.2 186.899 592.051 186.899 593.1C186.899 594.149 187.75 595 188.799 595Z" fill="#B8E4FA"/>
<path d="M300.499 546.9C301.272 546.9 301.899 546.273 301.899 545.5C301.899 544.727 301.272 544.1 300.499 544.1C299.726 544.1 299.099 544.727 299.099 545.5C299.099 546.273 299.726 546.9 300.499 546.9Z" fill="#B8E4FA"/>
<path d="M190.799 533.1C191.849 533.1 192.699 532.249 192.699 531.2C192.699 530.151 191.849 529.3 190.799 529.3C189.75 529.3 188.899 530.151 188.899 531.2C188.899 532.249 189.75 533.1 190.799 533.1Z" fill="#B8E4FA"/>
<path d="M213.399 480.5C214.448 480.5 215.299 479.649 215.299 478.6C215.299 477.551 214.448 476.7 213.399 476.7C212.35 476.7 211.499 477.551 211.499 478.6C211.499 479.649 212.35 480.5 213.399 480.5Z" fill="#FFA600"/>
<path d="M248.699 518.2C249.749 518.2 250.599 517.349 250.599 516.3C250.599 515.251 249.749 514.4 248.699 514.4C247.65 514.4 246.799 515.251 246.799 516.3C246.799 517.349 247.65 518.2 248.699 518.2Z" fill="#8118B4"/>
<path d="M120.799 402.8C122.18 402.8 123.299 401.681 123.299 400.3C123.299 398.919 122.18 397.8 120.799 397.8C119.418 397.8 118.299 398.919 118.299 400.3C118.299 401.681 119.418 402.8 120.799 402.8Z" fill="#FFA600"/>
<path d="M130.199 370.3C131.249 370.3 132.099 369.449 132.099 368.4C132.099 367.351 131.249 366.5 130.199 366.5C129.15 366.5 128.299 367.351 128.299 368.4C128.299 369.449 129.15 370.3 130.199 370.3Z" fill="#B8E4FA"/>
<path d="M187.999 432.2C189.767 432.2 191.199 430.767 191.199 429C191.199 427.233 189.767 425.8 187.999 425.8C186.232 425.8 184.799 427.233 184.799 429C184.799 430.767 186.232 432.2 187.999 432.2Z" fill="#FF73A7"/>
<path d="M160.299 424.3C161.349 424.3 162.199 423.449 162.199 422.4C162.199 421.351 161.349 420.5 160.299 420.5C159.25 420.5 158.399 421.351 158.399 422.4C158.399 423.449 159.25 424.3 160.299 424.3Z" fill="#B8E4FA"/>
<path d="M167.999 481.1C169.048 481.1 169.899 480.249 169.899 479.2C169.899 478.151 169.048 477.3 167.999 477.3C166.95 477.3 166.099 478.151 166.099 479.2C166.099 480.249 166.95 481.1 167.999 481.1Z" fill="#FFA600"/>
<path d="M118.299 466.9C119.349 466.9 120.199 466.049 120.199 465C120.199 463.951 119.349 463.1 118.299 463.1C117.25 463.1 116.399 463.951 116.399 465C116.399 466.049 117.25 466.9 118.299 466.9Z" fill="#8118B4"/>
<path d="M149.599 454.2C150.649 454.2 151.499 453.349 151.499 452.3C151.499 451.251 150.649 450.4 149.599 450.4C148.55 450.4 147.699 451.251 147.699 452.3C147.699 453.349 148.55 454.2 149.599 454.2Z" fill="#8118B4"/>
<path d="M235.699 387.3C237.025 387.3 238.099 386.225 238.099 384.9C238.099 383.575 237.025 382.5 235.699 382.5C234.374 382.5 233.299 383.575 233.299 384.9C233.299 386.225 234.374 387.3 235.699 387.3Z" fill="#8118B4"/>
<path d="M175.299 398.6C175.796 398.6 176.199 398.197 176.199 397.7C176.199 397.203 175.796 396.8 175.299 396.8C174.802 396.8 174.399 397.203 174.399 397.7C174.399 398.197 174.802 398.6 175.299 398.6Z" fill="#FF73A7"/>
<path d="M152.199 407.7C153.138 407.7 153.899 406.939 153.899 406C153.899 405.061 153.138 404.3 152.199 404.3C151.26 404.3 150.499 405.061 150.499 406C150.499 406.939 151.26 407.7 152.199 407.7Z" fill="#FFA600"/>
<path d="M102.999 365.6C103.828 365.6 104.499 364.928 104.499 364.1C104.499 363.272 103.828 362.6 102.999 362.6C102.171 362.6 101.499 363.272 101.499 364.1C101.499 364.928 102.171 365.6 102.999 365.6Z" fill="#FF73A7"/>
<path d="M183.199 255.4C184.138 255.4 184.899 254.639 184.899 253.7C184.899 252.761 184.138 252 183.199 252C182.26 252 181.499 252.761 181.499 253.7C181.499 254.639 182.26 255.4 183.199 255.4Z" fill="#B8E4FA"/>
<path d="M210.399 304.9C211.338 304.9 212.099 304.139 212.099 303.2C212.099 302.261 211.338 301.5 210.399 301.5C209.46 301.5 208.699 302.261 208.699 303.2C208.699 304.139 209.46 304.9 210.399 304.9Z" fill="#B8E4FA"/>
<path d="M217.099 356.7C218.038 356.7 218.799 355.939 218.799 355C218.799 354.061 218.038 353.3 217.099 353.3C216.16 353.3 215.399 354.061 215.399 355C215.399 355.939 216.16 356.7 217.099 356.7Z" fill="#FFA600"/>
<path d="M171.799 343.5C172.738 343.5 173.499 342.739 173.499 341.8C173.499 340.861 172.738 340.1 171.799 340.1C170.86 340.1 170.099 340.861 170.099 341.8C170.099 342.739 170.86 343.5 171.799 343.5Z" fill="#8118B4"/>
<path d="M171.199 357.3C172.138 357.3 172.899 356.539 172.899 355.6C172.899 354.661 172.138 353.9 171.199 353.9C170.26 353.9 169.499 354.661 169.499 355.6C169.499 356.539 170.26 357.3 171.199 357.3Z" fill="#8118B4"/>
<path d="M283.099 468.9C283.596 468.9 283.999 468.497 283.999 468C283.999 467.503 283.596 467.1 283.099 467.1C282.602 467.1 282.199 467.503 282.199 468C282.199 468.497 282.602 468.9 283.099 468.9Z" fill="#FF73A7"/>
<path d="M258.699 471.9C259.638 471.9 260.399 471.139 260.399 470.2C260.399 469.261 259.638 468.5 258.699 468.5C257.76 468.5 256.999 469.261 256.999 470.2C256.999 471.139 257.76 471.9 258.699 471.9Z" fill="#FFA600"/>
<path d="M221.799 418.6C222.627 418.6 223.299 417.928 223.299 417.1C223.299 416.272 222.627 415.6 221.799 415.6C220.971 415.6 220.299 416.272 220.299 417.1C220.299 417.928 220.971 418.6 221.799 418.6Z" fill="#FF73A7"/>
<path d="M317.799 547.9C319.069 547.9 320.099 546.87 320.099 545.6C320.099 544.33 319.069 543.3 317.799 543.3C316.529 543.3 315.499 544.33 315.499 545.6C315.499 546.87 316.529 547.9 317.799 547.9Z" fill="#FFA600"/>
<path d="M290.799 561.4C291.738 561.4 292.499 560.639 292.499 559.7C292.499 558.761 291.738 558 290.799 558C289.86 558 289.099 558.761 289.099 559.7C289.099 560.639 289.86 561.4 290.799 561.4Z" fill="#B8E4FA"/>
<path d="M400.599 545.7C401.317 545.7 401.899 545.118 401.899 544.4C401.899 543.682 401.317 543.1 400.599 543.1C399.881 543.1 399.299 543.682 399.299 544.4C399.299 545.118 399.881 545.7 400.599 545.7Z" fill="#B8E4FA"/>
<path d="M307.299 507.4C308.238 507.4 308.999 506.639 308.999 505.7C308.999 504.761 308.238 504 307.299 504C306.36 504 305.599 504.761 305.599 505.7C305.599 506.639 306.36 507.4 307.299 507.4Z" fill="#B8E4FA"/>
<path d="M339.799 466.4C340.738 466.4 341.499 465.639 341.499 464.7C341.499 463.761 340.738 463 339.799 463C338.86 463 338.099 463.761 338.099 464.7C338.099 465.639 338.86 466.4 339.799 466.4Z" fill="#FFA600"/>
<path d="M361.899 508C362.838 508 363.599 507.239 363.599 506.3C363.599 505.361 362.838 504.6 361.899 504.6C360.96 504.6 360.199 505.361 360.199 506.3C360.199 507.239 360.96 508 361.899 508Z" fill="#8118B4"/>
<path d="M276.999 375.9C278.269 375.9 279.299 374.87 279.299 373.6C279.299 372.33 278.269 371.3 276.999 371.3C275.729 371.3 274.699 372.33 274.699 373.6C274.699 374.87 275.729 375.9 276.999 375.9Z" fill="#FFA600"/>
<path d="M292.899 349.4C293.838 349.4 294.599 348.639 294.599 347.7C294.599 346.761 293.838 346 292.899 346C291.96 346 291.199 346.761 291.199 347.7C291.199 348.639 291.96 349.4 292.899 349.4Z" fill="#B8E4FA"/>
<path d="M329.299 417.8C330.901 417.8 332.199 416.502 332.199 414.9C332.199 413.298 330.901 412 329.299 412C327.698 412 326.399 413.298 326.399 414.9C326.399 416.502 327.698 417.8 329.299 417.8Z" fill="#FF73A7"/>
<path d="M306.499 404.2C307.438 404.2 308.199 403.439 308.199 402.5C308.199 401.561 307.438 400.8 306.499 400.8C305.56 400.8 304.799 401.561 304.799 402.5C304.799 403.439 305.56 404.2 306.499 404.2Z" fill="#B8E4FA"/>
<path d="M299.699 456.1C300.638 456.1 301.399 455.339 301.399 454.4C301.399 453.461 300.638 452.7 299.699 452.7C298.76 452.7 297.999 453.461 297.999 454.4C297.999 455.339 298.76 456.1 299.699 456.1Z" fill="#FFA600"/>
<path d="M259.299 431.7C260.238 431.7 260.999 430.939 260.999 430C260.999 429.061 260.238 428.3 259.299 428.3C258.36 428.3 257.599 429.061 257.599 430C257.599 430.939 258.36 431.7 259.299 431.7Z" fill="#8118B4"/>
<path d="M289.899 428C290.838 428 291.599 427.239 291.599 426.3C291.599 425.361 290.838 424.6 289.899 424.6C288.96 424.6 288.199 425.361 288.199 426.3C288.199 427.239 288.96 428 289.899 428Z" fill="#8118B4"/>
<path d="M581.199 310.2C581.752 310.2 582.199 309.752 582.199 309.2C582.199 308.648 581.752 308.2 581.199 308.2C580.647 308.2 580.199 308.648 580.199 309.2C580.199 309.752 580.647 310.2 581.199 310.2Z" fill="#FF73A7"/>
<path d="M575.899 338.4C576.949 338.4 577.799 337.549 577.799 336.5C577.799 335.451 576.949 334.6 575.899 334.6C574.85 334.6 573.999 335.451 573.999 336.5C573.999 337.549 574.85 338.4 575.899 338.4Z" fill="#FFA600"/>
<path d="M506.599 361.7C507.483 361.7 508.199 360.984 508.199 360.1C508.199 359.216 507.483 358.5 506.599 358.5C505.716 358.5 504.999 359.216 504.999 360.1C504.999 360.984 505.716 361.7 506.599 361.7Z" fill="#FF73A7"/>
<path d="M676.599 298.2C678.035 298.2 679.199 297.036 679.199 295.6C679.199 294.164 678.035 293 676.599 293C675.163 293 673.999 294.164 673.999 295.6C673.999 297.036 675.163 298.2 676.599 298.2Z" fill="#FFA600"/>
<path d="M683.499 331.3C684.548 331.3 685.399 330.449 685.399 329.4C685.399 328.351 684.548 327.5 683.499 327.5C682.45 327.5 681.599 328.351 681.599 329.4C681.599 330.449 682.45 331.3 683.499 331.3Z" fill="#B8E4FA"/>
<path d="M601.299 305.3C603.122 305.3 604.599 303.823 604.599 302C604.599 300.177 603.122 298.7 601.299 298.7C599.477 298.7 597.999 300.177 597.999 302C597.999 303.823 599.477 305.3 601.299 305.3Z" fill="#FF73A7"/>
<path d="M701.099 206.5C701.928 206.5 702.599 205.828 702.599 205C702.599 204.172 701.928 203.5 701.099 203.5C700.271 203.5 699.599 204.172 699.599 205C699.599 205.828 700.271 206.5 701.099 206.5Z" fill="#B8E4FA"/>
<path d="M629.799 296.5C630.848 296.5 631.699 295.649 631.699 294.6C631.699 293.551 630.848 292.7 629.799 292.7C628.75 292.7 627.899 293.551 627.899 294.6C627.899 295.649 628.75 296.5 629.799 296.5Z" fill="#B8E4FA"/>
<path d="M595.199 248.3C596.249 248.3 597.099 247.449 597.099 246.4C597.099 245.351 596.249 244.5 595.199 244.5C594.15 244.5 593.299 245.351 593.299 246.4C593.299 247.449 594.15 248.3 595.199 248.3Z" fill="#FFA600"/>
<path d="M647.499 237.2C648.548 237.2 649.399 236.349 649.399 235.3C649.399 234.251 648.548 233.4 647.499 233.4C646.45 233.4 645.599 234.251 645.599 235.3C645.599 236.349 646.45 237.2 647.499 237.2Z" fill="#8118B4"/>
<path d="M468.799 245.8C470.235 245.8 471.399 244.636 471.399 243.2C471.399 241.764 470.235 240.6 468.799 240.6C467.363 240.6 466.199 241.764 466.199 243.2C466.199 244.636 467.363 245.8 468.799 245.8Z" fill="#FFA600"/>
<path d="M445.599 219.7C446.649 219.7 447.499 218.849 447.499 217.8C447.499 216.751 446.649 215.9 445.599 215.9C444.55 215.9 443.699 216.751 443.699 217.8C443.699 218.849 444.55 219.7 445.599 219.7Z" fill="#B8E4FA"/>
<path d="M479.899 300.3C481.722 300.3 483.199 298.823 483.199 297C483.199 295.177 481.722 293.7 479.899 293.7C478.077 293.7 476.599 295.177 476.599 297C476.599 298.823 478.077 300.3 479.899 300.3Z" fill="#FF73A7"/>
<path d="M530.199 202.4C532.022 202.4 533.499 200.923 533.499 199.1C533.499 197.277 532.022 195.8 530.199 195.8C528.377 195.8 526.899 197.277 526.899 199.1C526.899 200.923 528.377 202.4 530.199 202.4Z" fill="#FF73A7"/>
<path d="M509.499 222C510.548 222 511.399 221.149 511.399 220.1C511.399 219.051 510.548 218.2 509.499 218.2C508.45 218.2 507.599 219.051 507.599 220.1C507.599 221.149 508.45 222 509.499 222Z" fill="#B8E4FA"/>
<path d="M563.999 245.6C565.048 245.6 565.899 244.749 565.899 243.7C565.899 242.651 565.048 241.8 563.999 241.8C562.95 241.8 562.099 242.651 562.099 243.7C562.099 244.749 562.95 245.6 563.999 245.6Z" fill="#FFA600"/>
<path d="M524.799 282C525.848 282 526.699 281.149 526.699 280.1C526.699 279.051 525.848 278.2 524.799 278.2C523.75 278.2 522.899 279.051 522.899 280.1C522.899 281.149 523.75 282 524.799 282Z" fill="#8118B4"/>
<path d="M537.799 290.7C538.848 290.7 539.699 289.849 539.699 288.8C539.699 287.751 538.848 286.9 537.799 286.9C536.75 286.9 535.899 287.751 535.899 288.8C535.899 289.849 536.75 290.7 537.799 290.7Z" fill="#8118B4"/>
<path d="M675.599 216.1C676.649 216.1 677.499 215.249 677.499 214.2C677.499 213.151 676.649 212.3 675.599 212.3C674.55 212.3 673.699 213.151 673.699 214.2C673.699 215.249 674.55 216.1 675.599 216.1Z" fill="#8118B4"/>
<path d="M702.099 88.4C703.645 88.4 704.899 87.1464 704.899 85.6C704.899 84.0536 703.645 82.8 702.099 82.8C700.553 82.8 699.299 84.0536 699.299 85.6C699.299 87.1464 700.553 88.4 702.099 88.4Z" fill="#8118B4"/>
<path d="M673.899 150.7C674.451 150.7 674.899 150.252 674.899 149.7C674.899 149.148 674.451 148.7 673.899 148.7C673.347 148.7 672.899 149.148 672.899 149.7C672.899 150.252 673.347 150.7 673.899 150.7Z" fill="#FF73A7"/>
<path d="M666.299 178.4C667.348 178.4 668.199 177.549 668.199 176.5C668.199 175.451 667.348 174.6 666.299 174.6C665.25 174.6 664.399 175.451 664.399 176.5C664.399 177.549 665.25 178.4 666.299 178.4Z" fill="#FFA600"/>
<path d="M595.199 195.7C596.083 195.7 596.799 194.984 596.799 194.1C596.799 193.216 596.083 192.5 595.199 192.5C594.316 192.5 593.599 193.216 593.599 194.1C593.599 194.984 594.316 195.7 595.199 195.7Z" fill="#FF73A7"/>
<path d="M571.399 120.7C572.835 120.7 573.999 119.536 573.999 118.1C573.999 116.664 572.835 115.5 571.399 115.5C569.963 115.5 568.799 116.664 568.799 118.1C568.799 119.536 569.963 120.7 571.399 120.7Z" fill="#FFA600"/>
<path d="M550.299 92.7C551.348 92.7 552.199 91.8493 552.199 90.8C552.199 89.7507 551.348 88.9 550.299 88.9C549.25 88.9 548.399 89.7507 548.399 90.8C548.399 91.8493 549.25 92.7 550.299 92.7Z" fill="#B8E4FA"/>
<path d="M577.799 175.9C579.622 175.9 581.099 174.423 581.099 172.6C581.099 170.777 579.622 169.3 577.799 169.3C575.977 169.3 574.499 170.777 574.499 172.6C574.499 174.423 575.977 175.9 577.799 175.9Z" fill="#FF73A7"/>
<path d="M636.299 82.6C638.122 82.6 639.599 81.1225 639.599 79.3C639.599 77.4775 638.122 76 636.299 76C634.477 76 632.999 77.4775 632.999 79.3C632.999 81.1225 634.477 82.6 636.299 82.6Z" fill="#FF73A7"/>
<path d="M613.899 100.4C614.949 100.4 615.799 99.5493 615.799 98.5C615.799 97.4507 614.949 96.6 613.899 96.6C612.85 96.6 611.999 97.4507 611.999 98.5C611.999 99.5493 612.85 100.4 613.899 100.4Z" fill="#B8E4FA"/>
<path d="M666.099 128.5C667.149 128.5 667.999 127.649 667.999 126.6C667.999 125.551 667.149 124.7 666.099 124.7C665.05 124.7 664.199 125.551 664.199 126.6C664.199 127.649 665.05 128.5 666.099 128.5Z" fill="#FFA600"/>
<path d="M623.999 161.4C625.048 161.4 625.899 160.549 625.899 159.5C625.899 158.451 625.048 157.6 623.999 157.6C622.95 157.6 622.099 158.451 622.099 159.5C622.099 160.549 622.95 161.4 623.999 161.4Z" fill="#8118B4"/>
<path d="M632.399 127.6C633.449 127.6 634.299 126.749 634.299 125.7C634.299 124.651 633.449 123.8 632.399 123.8C631.35 123.8 630.499 124.651 630.499 125.7C630.499 126.749 631.35 127.6 632.399 127.6Z" fill="#8118B4"/>
<path d="M500.499 304.8C502.046 304.8 503.299 303.546 503.299 302C503.299 300.454 502.046 299.2 500.499 299.2C498.953 299.2 497.699 300.454 497.699 302C497.699 303.546 498.953 304.8 500.499 304.8Z" fill="#8118B4"/>
<path d="M472.399 367.1C472.951 367.1 473.399 366.652 473.399 366.1C473.399 365.548 472.951 365.1 472.399 365.1C471.847 365.1 471.399 365.548 471.399 366.1C471.399 366.652 471.847 367.1 472.399 367.1Z" fill="#FF73A7"/>
<path d="M464.799 394.8C465.848 394.8 466.699 393.949 466.699 392.9C466.699 391.851 465.848 391 464.799 391C463.75 391 462.899 391.851 462.899 392.9C462.899 393.949 463.75 394.8 464.799 394.8Z" fill="#FFA600"/>
<path d="M393.699 412.1C394.583 412.1 395.299 411.384 395.299 410.5C395.299 409.616 394.583 408.9 393.699 408.9C392.815 408.9 392.099 409.616 392.099 410.5C392.099 411.384 392.815 412.1 393.699 412.1Z" fill="#FF73A7"/>
<path d="M369.899 337.1C371.335 337.1 372.499 335.936 372.499 334.5C372.499 333.064 371.335 331.9 369.899 331.9C368.463 331.9 367.299 333.064 367.299 334.5C367.299 335.936 368.463 337.1 369.899 337.1Z" fill="#FFA600"/>
<path d="M348.799 309.1C349.849 309.1 350.699 308.249 350.699 307.2C350.699 306.151 349.849 305.3 348.799 305.3C347.75 305.3 346.899 306.151 346.899 307.2C346.899 308.249 347.75 309.1 348.799 309.1Z" fill="#B8E4FA"/>
<path d="M376.299 392.4C378.122 392.4 379.599 390.923 379.599 389.1C379.599 387.277 378.122 385.8 376.299 385.8C374.477 385.8 372.999 387.277 372.999 389.1C372.999 390.923 374.477 392.4 376.299 392.4Z" fill="#FF73A7"/>
<path d="M434.699 299C436.522 299 437.999 297.523 437.999 295.7C437.999 293.877 436.522 292.4 434.699 292.4C432.877 292.4 431.399 293.877 431.399 295.7C431.399 297.523 432.877 299 434.699 299Z" fill="#FF73A7"/>
<path d="M412.399 316.8C413.449 316.8 414.299 315.949 414.299 314.9C414.299 313.851 413.449 313 412.399 313C411.35 313 410.499 313.851 410.499 314.9C410.499 315.949 411.35 316.8 412.399 316.8Z" fill="#B8E4FA"/>
<path d="M464.599 345C465.649 345 466.499 344.149 466.499 343.1C466.499 342.051 465.649 341.2 464.599 341.2C463.55 341.2 462.699 342.051 462.699 343.1C462.699 344.149 463.55 345 464.599 345Z" fill="#FFA600"/>
<path d="M422.499 377.9C423.548 377.9 424.399 377.049 424.399 376C424.399 374.951 423.548 374.1 422.499 374.1C421.45 374.1 420.599 374.951 420.599 376C420.599 377.049 421.45 377.9 422.499 377.9Z" fill="#8118B4"/>
<path d="M430.899 344C431.949 344 432.799 343.149 432.799 342.1C432.799 341.051 431.949 340.2 430.899 340.2C429.85 340.2 428.999 341.051 428.999 342.1C428.999 343.149 429.85 344 430.899 344Z" fill="#8118B4"/>
<g opacity="0.67">
<path opacity="0.67" d="M52.6992 152.4C54.2456 152.4 55.4992 151.146 55.4992 149.6C55.4992 148.054 54.2456 146.8 52.6992 146.8C51.1528 146.8 49.8992 148.054 49.8992 149.6C49.8992 151.146 51.1528 152.4 52.6992 152.4Z" fill="#8118B4"/>
<path opacity="0.67" d="M24.4991 214.7C25.0514 214.7 25.4991 214.252 25.4991 213.7C25.4991 213.148 25.0514 212.7 24.4991 212.7C23.9469 212.7 23.4991 213.148 23.4991 213.7C23.4991 214.252 23.9469 214.7 24.4991 214.7Z" fill="#FF73A7"/>
<path opacity="0.67" d="M16.8991 242.4C17.9485 242.4 18.7991 241.549 18.7991 240.5C18.7991 239.451 17.9485 238.6 16.8991 238.6C15.8498 238.6 14.9991 239.451 14.9991 240.5C14.9991 241.549 15.8498 242.4 16.8991 242.4Z" fill="#FFA600"/>
<g opacity="0.67">
<path opacity="0.67" d="M16.6992 192.5C17.7485 192.5 18.5992 191.649 18.5992 190.6C18.5992 189.551 17.7485 188.7 16.6992 188.7C15.6498 188.7 14.7992 189.551 14.7992 190.6C14.7992 191.649 15.6498 192.5 16.6992 192.5Z" fill="#FFA600"/>
</g>
</g>
<path d="M428.099 302C429.645 302 430.899 300.746 430.899 299.2C430.899 297.654 429.645 296.4 428.099 296.4C426.553 296.4 425.299 297.654 425.299 299.2C425.299 300.746 426.553 302 428.099 302Z" fill="#8118B4"/>
<path d="M363.099 274.2C363.651 274.2 364.099 273.752 364.099 273.2C364.099 272.648 363.651 272.2 363.099 272.2C362.547 272.2 362.099 272.648 362.099 273.2C362.099 273.752 362.547 274.2 363.099 274.2Z" fill="#FF73A7"/>
<path d="M335.999 268.4C337.048 268.4 337.899 267.549 337.899 266.5C337.899 265.451 337.048 264.6 335.999 264.6C334.95 264.6 334.099 265.451 334.099 266.5C334.099 267.549 334.95 268.4 335.999 268.4Z" fill="#FFA600"/>
<path d="M316.099 197.6C316.983 197.6 317.699 196.884 317.699 196C317.699 195.116 316.983 194.4 316.099 194.4C315.215 194.4 314.499 195.116 314.499 196C314.499 196.884 315.215 197.6 316.099 197.6Z" fill="#FF73A7"/>
<path d="M371.599 371.7C373.035 371.7 374.199 370.536 374.199 369.1C374.199 367.664 373.035 366.5 371.599 366.5C370.163 366.5 368.999 367.664 368.999 369.1C368.999 370.536 370.163 371.7 371.599 371.7Z" fill="#FFA600"/>
<path d="M337.499 376.2C338.548 376.2 339.399 375.349 339.399 374.3C339.399 373.251 338.548 372.4 337.499 372.4C336.45 372.4 335.599 373.251 335.599 374.3C335.599 375.349 336.45 376.2 337.499 376.2Z" fill="#B8E4FA"/>
<path d="M422.399 393.3C424.222 393.3 425.699 391.823 425.699 390C425.699 388.177 424.222 386.7 422.399 386.7C420.577 386.7 419.099 388.177 419.099 390C419.099 391.823 420.577 393.3 422.399 393.3Z" fill="#FF73A7"/>
<path d="M369.199 296.9C371.022 296.9 372.499 295.423 372.499 293.6C372.499 291.777 371.022 290.3 369.199 290.3C367.377 290.3 365.899 291.777 365.899 293.6C365.899 295.423 367.377 296.9 369.199 296.9Z" fill="#FF73A7"/>
<path d="M460.799 399.9C461.627 399.9 462.299 399.228 462.299 398.4C462.299 397.572 461.627 396.9 460.799 396.9C459.971 396.9 459.299 397.572 459.299 398.4C459.299 399.228 459.971 399.9 460.799 399.9Z" fill="#B8E4FA"/>
<path d="M375.099 324.4C376.148 324.4 376.999 323.549 376.999 322.5C376.999 321.451 376.148 320.6 375.099 320.6C374.05 320.6 373.199 321.451 373.199 322.5C373.199 323.549 374.05 324.4 375.099 324.4Z" fill="#B8E4FA"/>
<path d="M425.099 292.3C426.148 292.3 426.999 291.449 426.999 290.4C426.999 289.351 426.148 288.5 425.099 288.5C424.05 288.5 423.199 289.351 423.199 290.4C423.199 291.449 424.05 292.3 425.099 292.3Z" fill="#FFA600"/>
<path d="M433.399 345.2C434.449 345.2 435.299 344.349 435.299 343.3C435.299 342.251 434.449 341.4 433.399 341.4C432.35 341.4 431.499 342.251 431.499 343.3C431.499 344.349 432.35 345.2 433.399 345.2Z" fill="#8118B4"/>
<path d="M391.299 172.3C392.735 172.3 393.899 171.136 393.899 169.7C393.899 168.264 392.735 167.1 391.299 167.1C389.863 167.1 388.699 168.264 388.699 169.7C388.699 171.136 389.863 172.3 391.299 172.3Z" fill="#FFA600"/>
<path d="M417.899 149.6C418.949 149.6 419.799 148.749 419.799 147.7C419.799 146.651 418.949 145.8 417.899 145.8C416.85 145.8 415.999 146.651 415.999 147.7C415.999 148.749 416.85 149.6 417.899 149.6Z" fill="#B8E4FA"/>
<path d="M336.999 181.2C338.822 181.2 340.299 179.723 340.299 177.9C340.299 176.077 338.822 174.6 336.999 174.6C335.177 174.6 333.699 176.077 333.699 177.9C333.699 179.723 335.177 181.2 336.999 181.2Z" fill="#FF73A7"/>
<path d="M432.199 236.5C434.022 236.5 435.499 235.023 435.499 233.2C435.499 231.377 434.022 229.9 432.199 229.9C430.377 229.9 428.899 231.377 428.899 233.2C428.899 235.023 430.377 236.5 432.199 236.5Z" fill="#FF73A7"/>
<path d="M412.299 213.4C413.349 213.4 414.199 212.549 414.199 211.5C414.199 210.451 413.349 209.6 412.299 209.6C411.25 209.6 410.399 210.451 410.399 211.5C410.399 212.549 411.25 213.4 412.299 213.4Z" fill="#B8E4FA"/>
<path d="M385.899 266.5C386.949 266.5 387.799 265.649 387.799 264.6C387.799 263.551 386.949 262.7 385.899 262.7C384.85 262.7 383.999 263.551 383.999 264.6C383.999 265.649 384.85 266.5 385.899 266.5Z" fill="#FFA600"/>
<path d="M351.599 225.5C352.649 225.5 353.499 224.649 353.499 223.6C353.499 222.551 352.649 221.7 351.599 221.7C350.55 221.7 349.699 222.551 349.699 223.6C349.699 224.649 350.55 225.5 351.599 225.5Z" fill="#8118B4"/>
<path d="M385.699 232.8C386.748 232.8 387.599 231.949 387.599 230.9C387.599 229.851 386.748 229 385.699 229C384.65 229 383.799 229.851 383.799 230.9C383.799 231.949 384.65 232.8 385.699 232.8Z" fill="#8118B4"/>
<path d="M296.099 86.5L299.599 88.2C299.799 88.3 299.899 88.5 299.899 88.7L300.299 92.5C300.399 93 300.999 93.2 301.399 92.9L304.199 90.1C304.399 90 304.599 89.9 304.799 89.9L308.599 90.6C309.099 90.7 309.499 90.2 309.299 89.7L307.599 86.3C307.499 86.1 307.499 85.9 307.599 85.7L309.499 82.3C309.799 81.8 309.399 81.3 308.899 81.4L304.999 82C304.799 82 304.599 82 304.399 81.8L301.799 79C301.399 78.6 300.799 78.8 300.699 79.3L299.999 83.2C299.999 83.4 299.799 83.6 299.599 83.7L295.999 85.4C295.599 85.6 295.599 86.3 296.099 86.5Z" fill="url(#paint3_linear)"/>
<path opacity="0.17" d="M296.099 85.4L299.699 83.7C299.899 83.6 299.999 83.4 300.099 83.2L300.799 79.4C300.899 79.1 301.099 78.9 301.399 78.9C301.299 80.4 303.399 81.9 303.299 83C303.199 83.7 303.099 84.3 303.299 84.8C303.499 85.5 303.899 86.1 303.599 87.2C303.399 88 301.499 89.7 301.299 90.5C301.099 91.1 301.299 91.6 300.899 92.7C300.899 92.8 300.799 92.9 300.799 93C300.599 92.9 300.399 92.7 300.399 92.5L299.999 88.7C299.999 88.5 299.899 88.3 299.699 88.2L296.199 86.5C295.599 86.3 295.599 85.6 296.099 85.4Z" fill="#351656"/>
</g>
<path d="M89.8991 211.4L93.7991 206.9C93.9991 206.7 94.2991 206.5 94.5991 206.6L100.499 207.4C101.299 207.5 101.799 206.6 101.399 205.9L98.2991 200.6C98.0991 200.3 98.0991 200 98.1991 199.7L100.599 194.2C100.899 193.5 100.299 192.6 99.4991 192.8L93.6991 194.1C93.3991 194.2 93.0991 194.1 92.7991 193.9L88.3991 189.7C87.7991 189.1 86.8991 189.5 86.7991 190.3L86.2991 196.3C86.2991 196.6 86.0991 196.9 85.7991 197.1L80.6991 200C79.9991 200.4 80.0991 201.4 80.7991 201.8L86.2991 204.3C86.5991 204.4 86.7991 204.7 86.8991 205L88.0991 211C88.3991 211.7 89.3991 212 89.8991 211.4Z" fill="url(#paint4_linear)"/>
</g>
<defs>
<linearGradient id="paint0_linear" x1="395.249" y1="0" x2="395.249" y2="717.143" gradientUnits="userSpaceOnUse">
<stop offset="0.611311" stop-color="#231E33"/>
<stop offset="1" stop-color="#522359"/>
</linearGradient>
<linearGradient id="paint1_linear" x1="395.249" y1="0" x2="395.249" y2="717.143" gradientUnits="userSpaceOnUse">
<stop offset="0.611311" stop-color="#231E33"/>
<stop offset="1" stop-color="#522359"/>
</linearGradient>
<linearGradient id="paint2_linear" x1="614.587" y1="562.663" x2="767.05" y2="826.737" gradientUnits="userSpaceOnUse">
<stop stop-color="#623997"/>
<stop offset="1" stop-color="#662A67"/>
</linearGradient>
<linearGradient id="paint3_linear" x1="307.115" y1="91.661" x2="300.081" y2="79.4942" gradientUnits="userSpaceOnUse">
<stop offset="0.0567568" stop-color="#FF7E48"/>
<stop offset="0.3352" stop-color="#FF796F"/>
<stop offset="0.6072" stop-color="#FF768E"/>
<stop offset="0.838" stop-color="#FF74A0"/>
<stop offset="1" stop-color="#FF73A7"/>
</linearGradient>
<linearGradient id="paint4_linear" x1="101.54" y1="200.566" x2="80.2214" y2="200.566" gradientUnits="userSpaceOnUse">
<stop stop-color="#FBB40D"/>
<stop offset="1" stop-color="#FB710D"/>
</linearGradient>
</defs>
</svg>
