<svg width="570" height="568" viewBox="0 0 570 568" fill="none" xmlns="http://www.w3.org/2000/svg">
<mask id="mask0" mask-type="alpha" maskUnits="userSpaceOnUse" x="-118" y="0" width="688" height="568">
<path d="M49.2259 110.806C29.3551 51.2 -7.45685 12.0995 -23.379 0H-117.001V512C-104.9 512 -60.2472 485.408 -13.8257 512C176.165 620.832 405.873 565.782 539.999 373.5C634.543 237.963 480.327 242.579 371.999 243C318.776 243.207 74.0644 185.313 49.2259 110.806Z" fill="url(#paint0_linear)"/>
</mask>
<g mask="url(#mask0)">
<path d="M49.2259 110.806C29.3551 51.2 -7.45685 12.0995 -23.379 0H-117.001V512C-104.9 512 -60.2472 485.408 -13.8257 512C176.165 620.832 405.873 565.782 539.999 373.5C634.543 237.963 480.327 242.579 371.999 243C318.776 243.207 74.0644 185.313 49.2259 110.806Z" fill="url(#paint1_linear)"/>
<path opacity="0.3" d="M0.836707 412.312C-51.3244 421.029 -88.6441 446.497 -100.784 458.141L-113.001 535.904L312.776 602.797L326.24 517.099C334.967 461.554 328.902 324.003 258.036 267.336C187.17 210.67 146.762 270.994 124.392 309.76C102.022 348.526 66.0381 401.415 0.836707 412.312Z" fill="url(#paint2_linear)"/>
<g opacity="0.3">
<path d="M323.193 256.4C324.684 256.4 325.893 255.191 325.893 253.7C325.893 252.209 324.684 251 323.193 251C321.702 251 320.493 252.209 320.493 253.7C320.493 255.191 321.702 256.4 323.193 256.4Z" fill="#8118B4"/>
<path d="M262.993 285.5C263.49 285.5 263.893 285.097 263.893 284.6C263.893 284.103 263.49 283.7 262.993 283.7C262.496 283.7 262.093 284.103 262.093 284.6C262.093 285.097 262.496 285.5 262.993 285.5Z" fill="#FF73A7"/>
<path d="M240.993 302C242.043 302 242.893 301.149 242.893 300.1C242.893 299.051 242.043 298.2 240.993 298.2C239.944 298.2 239.093 299.051 239.093 300.1C239.093 301.149 239.944 302 240.993 302Z" fill="#FFA600"/>
<path d="M176.993 271.5C177.877 271.5 178.593 270.784 178.593 269.9C178.593 269.016 177.877 268.3 176.993 268.3C176.11 268.3 175.393 269.016 175.393 269.9C175.393 270.784 176.11 271.5 176.993 271.5Z" fill="#FF73A7"/>
<path d="M230.093 132C231.142 132 231.993 131.149 231.993 130.1C231.993 129.051 231.142 128.2 230.093 128.2C229.044 128.2 228.193 129.051 228.193 130.1C228.193 131.149 229.044 132 230.093 132Z" fill="#B8E4FA"/>
<path d="M272.993 176.5C274.043 176.5 274.893 175.649 274.893 174.6C274.893 173.551 274.043 172.7 272.993 172.7C271.944 172.7 271.093 173.551 271.093 174.6C271.093 175.649 271.944 176.5 272.993 176.5Z" fill="#B8E4FA"/>
<path d="M294.993 229.4C296.043 229.4 296.893 228.549 296.893 227.5C296.893 226.451 296.043 225.6 294.993 225.6C293.944 225.6 293.093 226.451 293.093 227.5C293.093 228.549 293.944 229.4 294.993 229.4Z" fill="#FFA600"/>
<path d="M243.393 228.4C244.442 228.4 245.293 227.549 245.293 226.5C245.293 225.451 244.442 224.6 243.393 224.6C242.344 224.6 241.493 225.451 241.493 226.5C241.493 227.549 242.344 228.4 243.393 228.4Z" fill="#8118B4"/>
<path d="M246.593 243.2C247.642 243.2 248.493 242.349 248.493 241.3C248.493 240.251 247.642 239.4 246.593 239.4C245.544 239.4 244.693 240.251 244.693 241.3C244.693 242.349 245.544 243.2 246.593 243.2Z" fill="#8118B4"/>
<path d="M397.193 328.9C397.69 328.9 398.093 328.497 398.093 328C398.093 327.503 397.69 327.1 397.193 327.1C396.696 327.1 396.293 327.503 396.293 328C396.293 328.497 396.696 328.9 397.193 328.9Z" fill="#FF73A7"/>
<path d="M371.993 339.3C373.043 339.3 373.893 338.449 373.893 337.4C373.893 336.351 373.043 335.5 371.993 335.5C370.944 335.5 370.093 336.351 370.093 337.4C370.093 338.449 370.944 339.3 371.993 339.3Z" fill="#FFA600"/>
<path d="M317.793 293.4C318.677 293.4 319.393 292.684 319.393 291.8C319.393 290.916 318.677 290.2 317.793 290.2C316.909 290.2 316.193 290.916 316.193 291.8C316.193 292.684 316.909 293.4 317.793 293.4Z" fill="#FF73A7"/>
<path d="M456.093 402.6C457.474 402.6 458.593 401.481 458.593 400.1C458.593 398.719 457.474 397.6 456.093 397.6C454.713 397.6 453.593 398.719 453.593 400.1C453.593 401.481 454.713 402.6 456.093 402.6Z" fill="#FFA600"/>
<path d="M431.593 424.6C432.642 424.6 433.493 423.749 433.493 422.7C433.493 421.651 432.642 420.8 431.593 420.8C430.544 420.8 429.693 421.651 429.693 422.7C429.693 423.749 430.544 424.6 431.593 424.6Z" fill="#B8E4FA"/>
<path d="M543.193 376.5C543.966 376.5 544.593 375.873 544.593 375.1C544.593 374.327 543.966 373.7 543.193 373.7C542.42 373.7 541.793 374.327 541.793 375.1C541.793 375.873 542.42 376.5 543.193 376.5Z" fill="#B8E4FA"/>
<path d="M433.593 362.8C434.642 362.8 435.493 361.949 435.493 360.9C435.493 359.851 434.642 359 433.593 359C432.544 359 431.693 359.851 431.693 360.9C431.693 361.949 432.544 362.8 433.593 362.8Z" fill="#B8E4FA"/>
<path d="M456.093 310.1C457.142 310.1 457.993 309.249 457.993 308.2C457.993 307.151 457.142 306.3 456.093 306.3C455.044 306.3 454.193 307.151 454.193 308.2C454.193 309.249 455.044 310.1 456.093 310.1Z" fill="#FFA600"/>
<path d="M491.393 347.8C492.442 347.8 493.293 346.949 493.293 345.9C493.293 344.851 492.442 344 491.393 344C490.344 344 489.493 344.851 489.493 345.9C489.493 346.949 490.344 347.8 491.393 347.8Z" fill="#8118B4"/>
<path d="M363.593 232.5C364.974 232.5 366.093 231.381 366.093 230C366.093 228.619 364.974 227.5 363.593 227.5C362.213 227.5 361.093 228.619 361.093 230C361.093 231.381 362.213 232.5 363.593 232.5Z" fill="#FFA600"/>
<path d="M372.993 199.9C374.043 199.9 374.893 199.049 374.893 198C374.893 196.951 374.043 196.1 372.993 196.1C371.944 196.1 371.093 196.951 371.093 198C371.093 199.049 371.944 199.9 372.993 199.9Z" fill="#B8E4FA"/>
<path d="M430.793 261.8C432.561 261.8 433.993 260.367 433.993 258.6C433.993 256.833 432.561 255.4 430.793 255.4C429.026 255.4 427.593 256.833 427.593 258.6C427.593 260.367 429.026 261.8 430.793 261.8Z" fill="#FF73A7"/>
<path d="M403.093 253.9C404.142 253.9 404.993 253.049 404.993 252C404.993 250.951 404.142 250.1 403.093 250.1C402.044 250.1 401.193 250.951 401.193 252C401.193 253.049 402.044 253.9 403.093 253.9Z" fill="#B8E4FA"/>
<path d="M410.793 310.7C411.842 310.7 412.693 309.849 412.693 308.8C412.693 307.751 411.842 306.9 410.793 306.9C409.744 306.9 408.893 307.751 408.893 308.8C408.893 309.849 409.744 310.7 410.793 310.7Z" fill="#FFA600"/>
<path d="M361.093 296.5C362.142 296.5 362.993 295.649 362.993 294.6C362.993 293.551 362.142 292.7 361.093 292.7C360.044 292.7 359.193 293.551 359.193 294.6C359.193 295.649 360.044 296.5 361.093 296.5Z" fill="#8118B4"/>
<path d="M392.393 283.9C393.442 283.9 394.293 283.049 394.293 282C394.293 280.951 393.442 280.1 392.393 280.1C391.344 280.1 390.493 280.951 390.493 282C390.493 283.049 391.344 283.9 392.393 283.9Z" fill="#8118B4"/>
<path d="M515.993 498.7C516.877 498.7 517.593 497.984 517.593 497.1C517.593 496.216 516.877 495.5 515.993 495.5C515.109 495.5 514.393 496.216 514.393 497.1C514.393 497.984 515.109 498.7 515.993 498.7Z" fill="#FF73A7"/>
<path d="M492.093 423.7C493.529 423.7 494.693 422.536 494.693 421.1C494.693 419.664 493.529 418.5 492.093 418.5C490.657 418.5 489.493 419.664 489.493 421.1C489.493 422.536 490.657 423.7 492.093 423.7Z" fill="#FFA600"/>
<path d="M471.093 395.6C472.142 395.6 472.993 394.749 472.993 393.7C472.993 392.651 472.142 391.8 471.093 391.8C470.044 391.8 469.193 392.651 469.193 393.7C469.193 394.749 470.044 395.6 471.093 395.6Z" fill="#B8E4FA"/>
<path d="M498.493 478.9C500.315 478.9 501.793 477.423 501.793 475.6C501.793 473.777 500.315 472.3 498.493 472.3C496.67 472.3 495.193 473.777 495.193 475.6C495.193 477.423 496.67 478.9 498.493 478.9Z" fill="#FF73A7"/>
<path d="M556.993 385.6C558.815 385.6 560.293 384.123 560.293 382.3C560.293 380.477 558.815 379 556.993 379C555.17 379 553.693 380.477 553.693 382.3C553.693 384.123 555.17 385.6 556.993 385.6Z" fill="#FF73A7"/>
<path d="M534.593 403.4C535.642 403.4 536.493 402.549 536.493 401.5C536.493 400.451 535.642 399.6 534.593 399.6C533.544 399.6 532.693 400.451 532.693 401.5C532.693 402.549 533.544 403.4 534.593 403.4Z" fill="#B8E4FA"/>
<path d="M544.693 464.4C545.742 464.4 546.593 463.549 546.593 462.5C546.593 461.451 545.742 460.6 544.693 460.6C543.644 460.6 542.793 461.451 542.793 462.5C542.793 463.549 543.644 464.4 544.693 464.4Z" fill="#8118B4"/>
<path d="M553.193 430.5C554.242 430.5 555.093 429.649 555.093 428.6C555.093 427.551 554.242 426.7 553.193 426.7C552.144 426.7 551.293 427.551 551.293 428.6C551.293 429.649 552.144 430.5 553.193 430.5Z" fill="#8118B4"/>
<g opacity="0.29">
<path opacity="0.29" d="M57.4932 285.9C59.15 285.9 60.4932 284.557 60.4932 282.9C60.4932 281.243 59.15 279.9 57.4932 279.9C55.8363 279.9 54.4932 281.243 54.4932 282.9C54.4932 284.557 55.8363 285.9 57.4932 285.9Z" fill="#8118B4"/>
<g opacity="0.29">
<path opacity="0.29" d="M95.4933 376.7C97.0949 376.7 98.3932 375.402 98.3932 373.8C98.3932 372.198 97.0949 370.9 95.4933 370.9C93.8917 370.9 92.5933 372.198 92.5933 373.8C92.5933 375.402 93.8917 376.7 95.4933 376.7Z" fill="#FFA600"/>
<path opacity="0.29" d="M82.6932 411.4C83.853 411.4 84.7932 410.46 84.7932 409.3C84.7932 408.14 83.853 407.2 82.6932 407.2C81.5334 407.2 80.5933 408.14 80.5933 409.3C80.5933 410.46 81.5334 411.4 82.6932 411.4Z" fill="#B8E4FA"/>
<path opacity="0.29" d="M142.093 339.3C144.081 339.3 145.693 337.688 145.693 335.7C145.693 333.712 144.081 332.1 142.093 332.1C140.105 332.1 138.493 333.712 138.493 335.7C138.493 337.688 140.105 339.3 142.093 339.3Z" fill="#FF73A7"/>
<path opacity="0.29" d="M21.4932 340.3C23.4814 340.3 25.0931 338.688 25.0931 336.7C25.0931 334.712 23.4814 333.1 21.4932 333.1C19.5049 333.1 17.8931 334.712 17.8931 336.7C17.8931 338.688 19.5049 340.3 21.4932 340.3Z" fill="#FF73A7"/>
<path opacity="0.29" d="M170.193 304.7C171.077 304.7 171.793 303.984 171.793 303.1C171.793 302.216 171.077 301.5 170.193 301.5C169.31 301.5 168.593 302.216 168.593 303.1C168.593 303.984 169.31 304.7 170.193 304.7Z" fill="#B8E4FA"/>
<path opacity="0.29" d="M52.3929 348.2C53.5527 348.2 54.493 347.26 54.493 346.1C54.493 344.94 53.5527 344 52.3929 344C51.2331 344 50.293 344.94 50.293 346.1C50.293 347.26 51.2331 348.2 52.3929 348.2Z" fill="#B8E4FA"/>
<path opacity="0.29" d="M47.5931 283.4C48.7529 283.4 49.6931 282.46 49.6931 281.3C49.6931 280.14 48.7529 279.2 47.5931 279.2C46.4333 279.2 45.4932 280.14 45.4932 281.3C45.4932 282.46 46.4333 283.4 47.5931 283.4Z" fill="#FFA600"/>
<path opacity="0.29" d="M102.793 302.9C103.953 302.9 104.893 301.96 104.893 300.8C104.893 299.64 103.953 298.7 102.793 298.7C101.633 298.7 100.693 299.64 100.693 300.8C100.693 301.96 101.633 302.9 102.793 302.9Z" fill="#8118B4"/>
</g>
<g opacity="0.29">
<path opacity="0.29" d="M2.19299 307.7C3.35279 307.7 4.29297 306.76 4.29297 305.6C4.29297 304.44 3.35279 303.5 2.19299 303.5C1.0332 303.5 0.0930176 304.44 0.0930176 305.6C0.0930176 306.76 1.0332 307.7 2.19299 307.7Z" fill="#FFA600"/>
</g>
</g>
<path d="M172.593 174.2C174.25 174.2 175.593 172.857 175.593 171.2C175.593 169.543 174.25 168.2 172.593 168.2C170.936 168.2 169.593 169.543 169.593 171.2C169.593 172.857 170.936 174.2 172.593 174.2Z" fill="#8118B4"/>
<path d="M113.593 221.4C114.201 221.4 114.693 220.908 114.693 220.3C114.693 219.692 114.201 219.2 113.593 219.2C112.986 219.2 112.493 219.692 112.493 220.3C112.493 220.908 112.986 221.4 113.593 221.4Z" fill="#FF73A7"/>
<path d="M93.0931 245C94.2529 245 95.1931 244.06 95.1931 242.9C95.1931 241.74 94.2529 240.8 93.0931 240.8C91.9333 240.8 90.9932 241.74 90.9932 242.9C90.9932 244.06 91.9333 245 93.0931 245Z" fill="#FFA600"/>
<path d="M14.7931 227.2C15.7872 227.2 16.5931 226.394 16.5931 225.4C16.5931 224.406 15.7872 223.6 14.7931 223.6C13.799 223.6 12.9932 224.406 12.9932 225.4C12.9932 226.394 13.799 227.2 14.7931 227.2Z" fill="#FF73A7"/>
<path d="M214.093 267.9C215.695 267.9 216.993 266.602 216.993 265C216.993 263.398 215.695 262.1 214.093 262.1C212.492 262.1 211.193 263.398 211.193 265C211.193 266.602 212.492 267.9 214.093 267.9Z" fill="#FFA600"/>
<path d="M201.293 302.6C202.453 302.6 203.393 301.66 203.393 300.5C203.393 299.34 202.453 298.4 201.293 298.4C200.133 298.4 199.193 299.34 199.193 300.5C199.193 301.66 200.133 302.6 201.293 302.6Z" fill="#B8E4FA"/>
<path d="M260.693 230.5C262.681 230.5 264.293 228.888 264.293 226.9C264.293 224.912 262.681 223.3 260.693 223.3C258.705 223.3 257.093 224.912 257.093 226.9C257.093 228.888 258.705 230.5 260.693 230.5Z" fill="#FF73A7"/>
<path d="M140.093 231.6C142.081 231.6 143.693 229.988 143.693 228C143.693 226.012 142.081 224.4 140.093 224.4C138.105 224.4 136.493 226.012 136.493 228C136.493 229.988 138.105 231.6 140.093 231.6Z" fill="#FF73A7"/>
<path d="M288.793 195.9C289.677 195.9 290.393 195.184 290.393 194.3C290.393 193.416 289.677 192.7 288.793 192.7C287.909 192.7 287.193 193.416 287.193 194.3C287.193 195.184 287.909 195.9 288.793 195.9Z" fill="#B8E4FA"/>
<path d="M170.993 239.4C172.153 239.4 173.093 238.46 173.093 237.3C173.093 236.14 172.153 235.2 170.993 235.2C169.833 235.2 168.893 236.14 168.893 237.3C168.893 238.46 169.833 239.4 170.993 239.4Z" fill="#B8E4FA"/>
<path d="M166.193 174.6C167.353 174.6 168.293 173.66 168.293 172.5C168.293 171.34 167.353 170.4 166.193 170.4C165.033 170.4 164.093 171.34 164.093 172.5C164.093 173.66 165.033 174.6 166.193 174.6Z" fill="#FFA600"/>
<path d="M221.393 194.1C222.553 194.1 223.493 193.16 223.493 192C223.493 190.84 222.553 189.9 221.393 189.9C220.233 189.9 219.293 190.84 219.293 192C219.293 193.16 220.233 194.1 221.393 194.1Z" fill="#8118B4"/>
<path d="M28.5929 142.1C30.1945 142.1 31.4929 140.802 31.4929 139.2C31.4929 137.598 30.1945 136.3 28.5929 136.3C26.9913 136.3 25.6929 137.598 25.6929 139.2C25.6929 140.802 26.9913 142.1 28.5929 142.1Z" fill="#FFA600"/>
<path d="M21.2928 104.3C22.4526 104.3 23.3928 103.36 23.3928 102.2C23.3928 101.04 22.4526 100.1 21.2928 100.1C20.133 100.1 19.1929 101.04 19.1929 102.2C19.1929 103.36 20.133 104.3 21.2928 104.3Z" fill="#B8E4FA"/>
<path d="M8.19299 199.4C10.1812 199.4 11.793 197.788 11.793 195.8C11.793 193.812 10.1812 192.2 8.19299 192.2C6.20477 192.2 4.59302 193.812 4.59302 195.8C4.59302 197.788 6.20477 199.4 8.19299 199.4Z" fill="#FF73A7"/>
<path d="M111.093 136.5C113.081 136.5 114.693 134.888 114.693 132.9C114.693 130.912 113.081 129.3 111.093 129.3C109.105 129.3 107.493 130.912 107.493 132.9C107.493 134.888 109.105 136.5 111.093 136.5Z" fill="#FF73A7"/>
<path d="M79.7928 142.9C80.9526 142.9 81.8928 141.96 81.8928 140.8C81.8928 139.64 80.9526 138.7 79.7928 138.7C78.633 138.7 77.6929 139.64 77.6929 140.8C77.6929 141.96 78.633 142.9 79.7928 142.9Z" fill="#B8E4FA"/>
<path d="M117.293 196C118.453 196 119.393 195.06 119.393 193.9C119.393 192.74 118.453 191.8 117.293 191.8C116.133 191.8 115.193 192.74 115.193 193.9C115.193 195.06 116.133 196 117.293 196Z" fill="#FFA600"/>
<path d="M59.8929 207.7C61.0527 207.7 61.993 206.76 61.993 205.6C61.993 204.44 61.0527 203.5 59.8929 203.5C58.7331 203.5 57.793 204.44 57.793 205.6C57.793 206.76 58.7331 207.7 59.8929 207.7Z" fill="#8118B4"/>
<path d="M84.693 178.6C85.8528 178.6 86.793 177.66 86.793 176.5C86.793 175.34 85.8528 174.4 84.693 174.4C83.5332 174.4 82.593 175.34 82.593 176.5C82.593 177.66 83.5332 178.6 84.693 178.6Z" fill="#8118B4"/>
<path d="M316.293 336.1C317.839 336.1 319.093 334.846 319.093 333.3C319.093 331.754 317.839 330.5 316.293 330.5C314.747 330.5 313.493 331.754 313.493 333.3C313.493 334.846 314.747 336.1 316.293 336.1Z" fill="#8118B4"/>
<path d="M262.493 379.1C263.045 379.1 263.493 378.652 263.493 378.1C263.493 377.548 263.045 377.1 262.493 377.1C261.941 377.1 261.493 377.548 261.493 378.1C261.493 378.652 261.941 379.1 262.493 379.1Z" fill="#FF73A7"/>
<path d="M243.793 400.6C244.842 400.6 245.693 399.749 245.693 398.7C245.693 397.651 244.842 396.8 243.793 396.8C242.744 396.8 241.893 397.651 241.893 398.7C241.893 399.749 242.744 400.6 243.793 400.6Z" fill="#FFA600"/>
<path d="M172.293 384.3C173.177 384.3 173.893 383.584 173.893 382.7C173.893 381.816 173.177 381.1 172.293 381.1C171.409 381.1 170.693 381.816 170.693 382.7C170.693 383.584 171.409 384.3 172.293 384.3Z" fill="#FF73A7"/>
<path d="M350.993 418.8C352.429 418.8 353.593 417.636 353.593 416.2C353.593 414.764 352.429 413.6 350.993 413.6C349.557 413.6 348.393 414.764 348.393 416.2C348.393 417.636 349.557 418.8 350.993 418.8Z" fill="#FFA600"/>
<path d="M339.293 450.6C340.342 450.6 341.193 449.749 341.193 448.7C341.193 447.651 340.342 446.8 339.293 446.8C338.244 446.8 337.393 447.651 337.393 448.7C337.393 449.749 338.244 450.6 339.293 450.6Z" fill="#B8E4FA"/>
<path d="M393.493 384.8C395.316 384.8 396.793 383.323 396.793 381.5C396.793 379.677 395.316 378.2 393.493 378.2C391.671 378.2 390.193 379.677 390.193 381.5C390.193 383.323 391.671 384.8 393.493 384.8Z" fill="#FF73A7"/>
<path d="M283.393 385.7C285.216 385.7 286.693 384.223 286.693 382.4C286.693 380.577 285.216 379.1 283.393 379.1C281.571 379.1 280.093 380.577 280.093 382.4C280.093 384.223 281.571 385.7 283.393 385.7Z" fill="#FF73A7"/>
<path d="M419.193 353.2C420.022 353.2 420.693 352.528 420.693 351.7C420.693 350.872 420.022 350.2 419.193 350.2C418.365 350.2 417.693 350.872 417.693 351.7C417.693 352.528 418.365 353.2 419.193 353.2Z" fill="#B8E4FA"/>
<path d="M311.593 392.9C312.643 392.9 313.493 392.049 313.493 391C313.493 389.951 312.643 389.1 311.593 389.1C310.544 389.1 309.693 389.951 309.693 391C309.693 392.049 310.544 392.9 311.593 392.9Z" fill="#B8E4FA"/>
<path d="M307.193 333.7C308.243 333.7 309.093 332.849 309.093 331.8C309.093 330.751 308.243 329.9 307.193 329.9C306.144 329.9 305.293 330.751 305.293 331.8C305.293 332.849 306.144 333.7 307.193 333.7Z" fill="#FFA600"/>
<path d="M357.593 351.5C358.643 351.5 359.493 350.649 359.493 349.6C359.493 348.551 358.643 347.7 357.593 347.7C356.544 347.7 355.693 348.551 355.693 349.6C355.693 350.649 356.544 351.5 357.593 351.5Z" fill="#8118B4"/>
<path d="M184.893 306.7C186.329 306.7 187.493 305.536 187.493 304.1C187.493 302.664 186.329 301.5 184.893 301.5C183.457 301.5 182.293 302.664 182.293 304.1C182.293 305.536 183.457 306.7 184.893 306.7Z" fill="#FFA600"/>
<path d="M178.193 272.1C179.242 272.1 180.093 271.249 180.093 270.2C180.093 269.151 179.242 268.3 178.193 268.3C177.144 268.3 176.293 269.151 176.293 270.2C176.293 271.249 177.144 272.1 178.193 272.1Z" fill="#B8E4FA"/>
<path d="M166.293 359C168.116 359 169.593 357.523 169.593 355.7C169.593 353.877 168.116 352.4 166.293 352.4C164.471 352.4 162.993 353.877 162.993 355.7C162.993 357.523 164.471 359 166.293 359Z" fill="#FF73A7"/>
<path d="M260.193 301.6C262.016 301.6 263.493 300.123 263.493 298.3C263.493 296.477 262.016 295 260.193 295C258.371 295 256.893 296.477 256.893 298.3C256.893 300.123 258.371 301.6 260.193 301.6Z" fill="#FF73A7"/>
<path d="M231.693 307.4C232.742 307.4 233.593 306.549 233.593 305.5C233.593 304.451 232.742 303.6 231.693 303.6C230.644 303.6 229.793 304.451 229.793 305.5C229.793 306.549 230.644 307.4 231.693 307.4Z" fill="#B8E4FA"/>
<path d="M265.793 355.9C266.842 355.9 267.693 355.049 267.693 354C267.693 352.951 266.842 352.1 265.793 352.1C264.744 352.1 263.893 352.951 263.893 354C263.893 355.049 264.744 355.9 265.793 355.9Z" fill="#FFA600"/>
<path d="M213.493 366.6C214.543 366.6 215.393 365.749 215.393 364.7C215.393 363.651 214.543 362.8 213.493 362.8C212.444 362.8 211.593 363.651 211.593 364.7C211.593 365.749 212.444 366.6 213.493 366.6Z" fill="#8118B4"/>
<path d="M236.093 340C237.142 340 237.993 339.149 237.993 338.1C237.993 337.051 237.142 336.2 236.093 336.2C235.044 336.2 234.193 337.051 234.193 338.1C234.193 339.149 235.044 340 236.093 340Z" fill="#8118B4"/>
<path d="M-348.307 -10C-313.607 -33.7 -277.707 -55.7 -240.507 -75.5C-203.407 -95.3 -165.107 -113.2 -125.507 -127.8C-105.707 -135.1 -85.6072 -141.6 -65.2072 -146.9C-44.8071 -152.2 -24.0071 -156.4 -2.9071 -158.6C18.1929 -160.7 39.6929 -161 60.6929 -156.7C65.8929 -155.7 71.0929 -154.3 76.1929 -152.5C81.2928 -150.7 86.2929 -148.7 90.9929 -146C100.493 -140.8 108.993 -133.7 115.293 -124.8C121.593 -115.9 125.493 -105.5 127.193 -94.9C128.093 -89.6 128.393 -84.2 128.293 -78.9C128.193 -73.6 127.793 -68.2 126.993 -63C123.893 -41.9 116.193 -21.9 106.993 -3C97.6929 16 86.5929 33.9 74.4929 51.2C62.3929 68.4 49.3929 85 35.4929 100.9C-20.0071 164.4 -85.1072 219 -154.607 266.8C-189.507 290.5 -225.607 312.5 -263.007 332.3C-272.307 337.3 -281.807 342.1 -291.307 346.7C-300.807 351.3 -310.407 355.8 -320.007 360.1C-339.307 368.8 -359.007 376.7 -378.907 383.9C-398.807 391.1 -419.207 397.3 -439.807 402.4C-460.407 407.5 -481.407 411.4 -502.707 413.3C-523.907 415.1 -545.607 415.1 -566.707 410.5C-572.007 409.4 -577.207 407.9 -582.307 406.1C-587.407 404.3 -592.407 402.1 -597.107 399.4C-606.507 394.1 -615.007 386.8 -621.207 377.8C-627.407 368.8 -631.107 358.4 -632.707 347.9C-633.507 342.6 -633.707 337.3 -633.607 332C-633.507 326.7 -633.007 321.4 -632.107 316.2C-628.707 295.3 -620.807 275.5 -611.407 256.8C-601.907 238.1 -590.607 220.3 -578.307 203.3C-566.007 186.3 -552.707 170 -538.907 154.3C-511.107 122.9 -480.707 93.8 -448.807 66.5C-416.507 39.1 -383.007 13.7 -348.307 -10ZM-348.307 -10C-383.007 13.8 -416.407 39.3 -448.207 66.7C-480.007 94.1 -510.007 123.5 -537.507 155.1C-551.307 170.9 -564.207 187.3 -576.207 204.4C-588.207 221.5 -599.107 239.3 -608.307 258C-617.307 276.7 -624.807 296.3 -627.807 316.6C-628.607 321.7 -629.007 326.8 -629.007 331.9C-629.007 337 -628.807 342.1 -627.907 347.1C-626.307 357.1 -622.607 366.7 -616.807 374.9C-610.907 383.1 -603.007 389.7 -594.107 394.6C-589.707 397.1 -584.907 399 -580.107 400.7C-575.307 402.4 -570.307 403.7 -565.207 404.7C-544.907 408.8 -523.807 408.5 -503.107 406.5C-482.307 404.3 -461.807 400.2 -441.507 394.9C-421.207 389.6 -401.307 383.1 -381.607 375.9C-342.307 361.4 -304.207 343.6 -267.207 323.9C-230.207 304.2 -194.507 282.3 -159.907 258.7C-125.307 235.1 -91.9072 209.8 -60.2072 182.6C-28.5071 155.4 1.79285 126.5 29.3928 95.3C43.1928 79.7 56.3929 63.6 68.4929 46.7C80.5929 29.9 91.7928 12.3 101.193 -6.10001C110.493 -24.5 118.093 -43.9 121.393 -64.1C122.193 -69.1 122.693 -74.2 122.893 -79.3C122.993 -84.4 122.793 -89.4 121.993 -94.4C120.493 -104.4 116.993 -114 111.293 -122.3C105.593 -130.6 97.6929 -137.4 88.7928 -142.4C84.3928 -145 79.5928 -147 74.7928 -148.8C69.8928 -150.6 64.8928 -152 59.8928 -153.1C39.4928 -157.5 18.2928 -157.5 -2.60718 -155.8C-23.5072 -153.9 -44.3071 -150.1 -64.7072 -145.1C-85.1072 -140.1 -105.307 -133.9 -125.107 -126.8C-164.707 -112.6 -203.207 -95.1 -240.407 -75.5C-277.507 -55.5 -313.507 -33.6 -348.307 -10Z" fill="url(#paint3_linear)"/>
<path d="M-445.007 15.3C-386.007 -31.2 -324.507 -75.4 -260.307 -116.7C-196.207 -158 -129.607 -196.7 -60.007 -230.7C-25.207 -247.7 10.293 -263.7 46.593 -278C82.893 -292.3 120.193 -304.9 158.293 -314.6C196.393 -324.1 235.593 -331 274.793 -331C284.593 -331 294.293 -330.5 303.893 -329.3C313.493 -328.2 322.993 -326.5 332.093 -324C350.293 -319 367.193 -310.8 380.393 -299.3C393.493 -287.8 402.593 -273.2 407.693 -257.6C410.293 -249.8 411.793 -241.8 412.693 -233.7C413.593 -225.6 413.793 -217.4 413.293 -209.2C411.393 -176.3 401.193 -143.7 387.893 -112.1C374.393 -80.5 357.393 -49.9 338.593 -20.1C319.693 9.69998 298.893 38.8 276.593 67.1C187.093 180.2 78.093 282.7 -40.007 376.1C-99.3069 422.7 -161.307 466.9 -225.907 508.2C-242.007 518.5 -258.307 528.7 -274.907 538.6C-291.407 548.5 -308.107 558.2 -324.907 567.7C-358.607 586.7 -393.007 604.7 -428.107 621.6C-463.207 638.5 -499.107 654.1 -535.807 668.1C-572.507 682 -610.107 694.3 -648.607 703.6C-687.007 712.7 -726.507 719.3 -765.907 718.8C-775.707 718.7 -785.507 718 -795.107 716.8C-804.707 715.6 -814.207 713.8 -823.307 711.1C-841.507 705.9 -858.307 697.4 -871.307 685.7C-884.207 674 -893.007 659.3 -897.807 643.8C-900.307 636 -901.607 628 -902.407 619.9C-903.107 611.8 -903.207 603.6 -902.607 595.5C-900.207 562.8 -889.507 530.4 -875.807 499.2C-861.807 467.9 -844.507 437.6 -825.207 408.1C-805.907 378.6 -784.707 349.9 -762.207 321.9C-717.307 265.8 -667.007 212.6 -613.807 161.6C-560.607 110.5 -504.107 61.7 -445.007 15.3ZM-445.007 15.3C-503.907 61.9 -560.307 110.7 -613.307 161.9C-666.207 213.1 -715.707 266.7 -760.107 322.9C-782.307 351 -802.907 379.9 -821.707 409.4C-840.407 439 -857.107 469.3 -870.407 500.3C-883.507 531.3 -893.407 563.3 -895.207 595.1C-895.707 603 -895.507 610.9 -894.607 618.7C-893.807 626.4 -892.307 634.1 -889.807 641.4C-885.007 656.1 -876.507 669.6 -864.407 680.3C-852.207 691 -836.507 698.6 -819.307 703.3C-810.707 705.7 -801.707 707.3 -792.607 708.3C-783.407 709.4 -774.107 709.9 -764.707 709.9C-726.907 709.9 -688.507 703.2 -651.007 693.8C-613.507 684.2 -576.707 671.8 -540.707 657.6C-504.707 643.4 -469.507 627.6 -434.907 610.7C-365.707 576.8 -299.507 538.3 -235.707 497.3C-171.807 456.2 -110.607 412.2 -51.807 365.9C6.99298 319.7 63.293 271.2 116.293 220.4C169.193 169.6 219.193 116.6 263.893 60.9C286.193 33.1 307.293 4.60001 326.393 -24.6C345.493 -53.8 362.593 -83.8 376.393 -114.6C389.893 -145.3 400.393 -177 402.693 -208.6C403.293 -216.5 403.293 -224.3 402.593 -232C401.893 -239.7 400.593 -247.4 398.293 -254.7C393.793 -269.4 385.593 -282.9 373.693 -293.8C361.693 -304.6 346.093 -312.5 328.993 -317.5C320.393 -320 311.393 -321.7 302.193 -322.9C292.993 -324.1 283.593 -324.7 274.193 -324.8C236.193 -325.3 197.493 -318.9 159.693 -309.9C121.793 -300.7 84.693 -288.6 48.293 -274.8C11.8929 -261 -23.8071 -245.5 -58.6071 -228.7C-128.307 -195.1 -195.307 -157.1 -259.607 -116C-324.207 -75.1 -385.907 -31 -445.007 15.3Z" fill="url(#paint4_linear)"/>
</g>
<path d="M80.3929 290.3L82.8929 290.7C82.9929 290.7 83.093 290.8 83.193 290.9L84.193 293.2C84.293 293.5 84.7929 293.5 84.8929 293.2L86.193 290.9C86.293 290.8 86.393 290.7 86.493 290.7L88.993 290.4C89.293 290.4 89.493 289.9 89.293 289.7L87.593 287.8C87.493 287.7 87.493 287.6 87.493 287.4L88.093 284.9C88.193 284.6 87.793 284.3 87.493 284.4L85.193 285.5C85.093 285.6 84.893 285.6 84.793 285.5L82.593 284.2C82.293 284 81.893 284.3 81.993 284.6L82.293 287.1C82.293 287.2 82.293 287.4 82.193 287.5L80.293 289.2C79.993 289.9 80.0929 290.3 80.3929 290.3Z" fill="url(#paint5_linear)"/>
<path d="M362.493 469.1C358.693 465.7 357.693 462 348.593 458.4C342.093 455.8 336.193 450.6 333.893 444C331.893 438.2 323.593 440.5 318.493 437.5C313.593 434.7 307.493 435.6 302.493 433.1C297.893 430.8 294.393 425.1 289.693 423C256.193 408.5 219.193 400.5 180.393 400.5C166.793 400.5 153.393 401.5 140.293 403.4C136.193 404 133.193 406.8 129.093 407.6C125.793 408.2 121.393 406.8 118.093 407.6C100.193 411.7 82.8932 417.6 66.4932 425.1C61.6932 427.3 58.1932 432.7 53.4932 435.2C47.0932 438.6 39.5932 439.1 33.4932 442.9C16.1932 453.8 0.293091 466.5 -14.2069 480.9C-14.6069 480.9 -15.0069 480.8 -15.4069 480.7C-19.0069 480 -23.5069 476.4 -26.1069 476.9C-29.1069 475.8 -36.4069 479.9 -43.3069 486.8C-50.9069 494.4 -55.1069 502.4 -52.8069 504.7C-50.4069 510.3 -47.3069 513.7 -45.7069 518.2C-77.1069 563 -95.6069 617.6 -95.6069 676.5C-95.6069 828.9 27.9931 952.5 180.393 952.5C332.793 952.5 456.393 828.9 456.393 676.5C456.293 593.8 419.993 519.7 362.493 469.1Z" fill="url(#paint6_linear)"/>
<path opacity="0.3" d="M362.493 469.1C358.693 465.7 357.693 462 348.593 458.4C342.093 455.8 336.193 450.6 333.893 444C331.893 438.2 323.593 440.5 318.493 437.5C313.593 434.7 307.493 435.6 302.493 433.1C297.893 430.8 294.393 425.1 289.693 423C256.193 408.5 219.193 400.5 180.393 400.5C166.793 400.5 153.393 401.5 140.293 403.4C136.193 404 133.193 406.8 129.093 407.6C127.393 407.9 125.393 407.7 123.493 407.5C130.093 426.8 144.493 448.3 167.593 455.8C198.093 465.7 252.393 447.4 286.793 498.7C310.993 534.8 334.393 646.3 330.593 710.9C329.293 733.2 408.893 716.9 453.293 718.2C455.393 704.6 456.393 690.7 456.393 676.5C456.293 593.8 419.993 519.7 362.493 469.1Z" fill="#392E66"/>
<path opacity="0.2" d="M362.493 469.1C358.693 465.7 357.693 462 348.593 458.4C342.093 455.8 336.193 450.6 333.893 444C331.893 438.2 323.593 440.5 318.493 437.5C313.593 434.7 307.493 435.6 302.493 433.1C297.893 430.8 294.393 425.1 289.693 423C281.993 419.7 274.093 416.7 266.093 414.1C249.893 408.8 264.893 412.8 293.193 437.8C404.993 536.3 396.293 627.3 392.493 691.8C391.393 709.4 423.393 705.6 454.493 708.9C455.693 698.3 456.393 687.5 456.393 676.5C456.293 593.8 419.993 519.7 362.493 469.1Z" fill="url(#paint7_linear)"/>
<path opacity="0.3" d="M280.093 725.1C280.093 725.1 326.493 465.2 215.393 482.3C155.993 491.5 123.793 484.5 92.493 452.6C82.493 442.4 67.2929 437 54.2929 434.6C53.9929 434.8 53.793 434.9 53.493 435.1C47.093 438.5 39.593 439 33.493 442.8C32.993 443.1 32.493 443.4 32.093 443.7C51.093 443.1 66.7929 448.4 77.3929 460.7C102.393 489.6 92.7929 577.1 -32.3071 627.3C-93.9071 652 280.093 725.1 280.093 725.1Z" fill="#392E66"/>
<path d="M68.5931 378.5L71.9931 377.1C72.1931 377 72.3931 377 72.5931 377.2L75.5931 379.3C75.9931 379.6 76.5931 379.2 76.4931 378.7L76.1931 374.9C76.1931 374.7 76.293 374.5 76.393 374.4L79.293 372C79.693 371.7 79.5931 371 79.0931 370.9L75.5931 370C75.3931 370 75.2931 369.8 75.1931 369.6L73.893 366.1C73.693 365.6 73.093 365.6 72.793 366L70.893 369.2C70.793 369.4 70.593 369.5 70.393 369.5L66.6931 369.7C66.1931 369.7 65.993 370.3 66.293 370.7L68.5931 373.6C68.6931 373.8 68.7931 374 68.6931 374.2L67.6931 377.8C67.6931 378.3 68.0931 378.7 68.5931 378.5Z" fill="url(#paint8_linear)"/>
<path opacity="0.05" d="M67.7932 377.8L68.7932 374.2C68.8932 374 68.7932 373.8 68.6932 373.6L66.3932 370.7C66.1932 370.5 66.1932 370.1 66.3932 369.9C67.4932 370.9 69.7932 370.3 70.5932 371.1C70.9932 371.6 71.3932 372 71.8932 372.2C72.4932 372.5 73.1932 372.6 73.8932 373.5C74.3932 374.1 74.3932 376.6 74.8932 377.3C75.2932 377.8 75.6932 378 76.2932 378.9C76.3932 379 76.3932 379.1 76.3932 379.2C76.1932 379.3 75.9932 379.3 75.7932 379.2L72.7932 377.1C72.5932 377 72.3932 377 72.1932 377L68.7932 378.4C68.0932 378.7 67.6932 378.3 67.7932 377.8Z" fill="#351656"/>
<path d="M443.593 407.8L449.393 405.6C449.693 405.5 450.093 405.5 450.293 405.7L455.293 409.4C455.993 409.9 456.893 409.4 456.893 408.5L456.793 402.1C456.793 401.8 456.893 401.4 457.193 401.2L462.193 397.4C462.893 396.9 462.693 395.8 461.893 395.6L455.993 393.8C455.693 393.7 455.393 393.5 455.293 393.1L453.393 387.1C453.093 386.3 452.093 386.1 451.593 386.8L448.093 392.1C447.893 392.4 447.593 392.6 447.293 392.6H441.093C440.293 392.6 439.793 393.6 440.293 394.3L443.993 399.3C444.193 399.6 444.293 399.9 444.193 400.2L442.293 406.3C442.093 407.4 442.893 408.1 443.593 407.8Z" fill="url(#paint9_linear)"/>
<path opacity="0.05" d="M442.393 406.5L444.293 400.4C444.393 400.1 444.293 399.7 444.093 399.5L440.393 394.5C440.093 394.1 440.193 393.5 440.393 393.2C442.093 395 446.193 394.1 447.293 395.5C447.993 396.3 448.593 397.1 449.393 397.5C450.493 398.1 451.593 398.3 452.593 399.8C453.293 400.9 453.193 405 453.993 406.2C454.593 407.1 455.293 407.4 456.193 409.1C456.293 409.2 456.293 409.4 456.393 409.5C456.093 409.7 455.693 409.7 455.293 409.4L450.293 405.7C449.993 405.5 449.693 405.5 449.393 405.6L443.593 407.8C442.893 408.1 442.093 407.4 442.393 406.5Z" fill="#351656"/>
<path d="M340.799 294.6C366.094 294.6 386.599 274.095 386.599 248.8C386.599 223.505 366.094 203 340.799 203C315.504 203 294.999 223.505 294.999 248.8C294.999 274.095 315.504 294.6 340.799 294.6Z" fill="url(#paint10_linear)"/>
</g>
<defs>
<linearGradient id="paint0_linear" x1="226.208" y1="0" x2="226.208" y2="567.223" gradientUnits="userSpaceOnUse">
<stop stop-color="#370D24"/>
<stop offset="0.502762" stop-color="#602A6B"/>
<stop offset="1" stop-color="#EA4C89"/>
</linearGradient>
<linearGradient id="paint1_linear" x1="226.208" y1="0" x2="226.208" y2="567.223" gradientUnits="userSpaceOnUse">
<stop offset="0.611311" stop-color="#231E33"/>
<stop offset="1" stop-color="#522359"/>
</linearGradient>
<linearGradient id="paint2_linear" x1="-86.7714" y1="368.952" x2="339.006" y2="435.845" gradientUnits="userSpaceOnUse">
<stop offset="0.611311" stop-color="#231E33"/>
<stop offset="1" stop-color="#522359"/>
</linearGradient>
<linearGradient id="paint3_linear" x1="-252.66" y1="-160.088" x2="-252.66" y2="414.419" gradientUnits="userSpaceOnUse">
<stop stop-color="#370D24"/>
<stop offset="0.502762" stop-color="#602A6B"/>
<stop offset="1" stop-color="#EA4C89"/>
</linearGradient>
<linearGradient id="paint4_linear" x1="-244.72" y1="-331" x2="-244.72" y2="718.827" gradientUnits="userSpaceOnUse">
<stop stop-color="#370D24"/>
<stop offset="0.502762" stop-color="#602A6B"/>
<stop offset="1" stop-color="#EA4C89"/>
</linearGradient>
<linearGradient id="paint5_linear" x1="88.3626" y1="291.178" x2="81.6622" y2="284.799" gradientUnits="userSpaceOnUse">
<stop offset="0.0567568" stop-color="#FF7E48"/>
<stop offset="0.3352" stop-color="#FF796F"/>
<stop offset="0.6072" stop-color="#FF768E"/>
<stop offset="0.838" stop-color="#FF74A0"/>
<stop offset="1" stop-color="#FF73A7"/>
</linearGradient>
<linearGradient id="paint6_linear" x1="180.393" y1="400.5" x2="180.393" y2="952.5" gradientUnits="userSpaceOnUse">
<stop stop-color="#623997"/>
<stop offset="1" stop-color="#662A67"/>
</linearGradient>
<linearGradient id="paint7_linear" x1="357.911" y1="412.051" x2="357.911" y2="708.9" gradientUnits="userSpaceOnUse">
<stop offset="0.611311" stop-color="#231E33"/>
<stop offset="1" stop-color="#522359"/>
</linearGradient>
<linearGradient id="paint8_linear" x1="79.5399" y1="372.557" x2="66.1521" y2="372.557" gradientUnits="userSpaceOnUse">
<stop stop-color="#FBB40D"/>
<stop offset="1" stop-color="#FB710D"/>
</linearGradient>
<linearGradient id="paint9_linear" x1="462.621" y1="397.985" x2="440.093" y2="397.985" gradientUnits="userSpaceOnUse">
<stop stop-color="#FBB40D"/>
<stop offset="1" stop-color="#FB710D"/>
</linearGradient>
<linearGradient id="paint10_linear" x1="340.799" y1="203" x2="340.799" y2="294.6" gradientUnits="userSpaceOnUse">
<stop stop-color="#623997"/>
<stop offset="1" stop-color="#662A67"/>
</linearGradient>
</defs>
</svg>
