<svg width="729" height="741" viewBox="0 0 729 741" fill="none" xmlns="http://www.w3.org/2000/svg">
<mask id="mask0" mask-type="alpha" maskUnits="userSpaceOnUse" x="0" y="-181" width="1051" height="922">
<path d="M475.711 74.6984C466.005 -136.289 683.536 -75.016 693.393 -92.4159L851.443 -67.9052L864.904 415.915C853.785 420.689 802.263 413.872 770.099 456.622C638.46 631.586 405.667 671.631 206.558 547.867C66.2086 460.627 131.573 365.871 231.279 323.517C280.266 302.708 485.417 285.686 475.711 74.6984Z" fill="url(#paint0_linear)"/>
</mask>
<g mask="url(#mask0)">
<path d="M475.711 74.6984C466.005 -136.289 683.536 -75.016 693.393 -92.4159L851.443 -67.9052L864.904 415.915C853.785 420.689 802.263 413.872 770.099 456.622C638.46 631.586 405.667 671.631 206.558 547.867C66.2086 460.627 131.573 365.871 231.279 323.517C280.266 302.708 485.417 285.686 475.711 74.6984Z" fill="url(#paint1_linear)"/>
<path opacity="0.3" d="M717.295 370.807C768.664 358.237 813.004 366.915 828.753 372.825L870.66 439.459L505.816 668.914L459.632 595.48C429.699 547.884 381.001 419.099 423.76 339.069C466.52 259.04 527.451 298.528 563.301 325.323C599.151 352.118 653.083 386.519 717.295 370.807Z" fill="url(#paint2_linear)"/>
<g opacity="0.3">
<path d="M359.575 354.726C358.205 355.315 356.618 354.681 356.029 353.311C355.441 351.941 356.075 350.353 357.445 349.764C358.815 349.176 360.403 349.81 360.991 351.18C361.579 352.55 360.946 354.138 359.575 354.726Z" fill="#8118B4"/>
<path d="M426.371 357.714C425.915 357.91 425.386 357.699 425.189 357.242C424.993 356.785 425.205 356.256 425.661 356.06C426.118 355.864 426.647 356.075 426.843 356.532C427.039 356.989 426.828 357.518 426.371 357.714Z" fill="#FF73A7"/>
<path d="M453.097 364.196C452.133 364.61 451.016 364.164 450.602 363.2C450.188 362.236 450.634 361.119 451.598 360.705C452.562 360.291 453.679 360.737 454.093 361.701C454.507 362.665 454.061 363.782 453.097 364.196Z" fill="#FFA600"/>
<path d="M499.874 310.919C499.062 311.268 498.121 310.892 497.773 310.08C497.424 309.268 497.8 308.328 498.612 307.979C499.424 307.63 500.365 308.006 500.713 308.818C501.062 309.63 500.686 310.571 499.874 310.919Z" fill="#FF73A7"/>
<path d="M396.042 203.687C395.078 204.101 393.961 203.655 393.547 202.69C393.133 201.726 393.579 200.609 394.543 200.195C395.507 199.781 396.625 200.227 397.039 201.191C397.453 202.155 397.007 203.273 396.042 203.687Z" fill="#B8E4FA"/>
<path d="M374.179 261.503C373.215 261.917 372.098 261.471 371.684 260.507C371.27 259.543 371.716 258.425 372.68 258.011C373.644 257.597 374.761 258.043 375.175 259.008C375.589 259.972 375.143 261.089 374.179 261.503Z" fill="#B8E4FA"/>
<path d="M374.835 318.792C373.871 319.206 372.754 318.76 372.34 317.796C371.926 316.832 372.372 315.714 373.336 315.3C374.3 314.886 375.418 315.332 375.832 316.297C376.246 317.261 375.8 318.378 374.835 318.792Z" fill="#FFA600"/>
<path d="M421.855 297.513C420.891 297.927 419.774 297.481 419.36 296.517C418.946 295.552 419.392 294.435 420.356 294.021C421.32 293.607 422.437 294.053 422.851 295.017C423.265 295.982 422.819 297.099 421.855 297.513Z" fill="#8118B4"/>
<path d="M424.753 312.376C423.789 312.79 422.672 312.344 422.258 311.38C421.844 310.416 422.29 309.298 423.254 308.884C424.218 308.47 425.336 308.916 425.75 309.881C426.164 310.845 425.718 311.962 424.753 312.376Z" fill="#8118B4"/>
<path d="M320.18 450.542C319.723 450.738 319.194 450.527 318.998 450.07C318.802 449.614 319.013 449.084 319.47 448.888C319.927 448.692 320.456 448.903 320.652 449.36C320.848 449.817 320.637 450.346 320.18 450.542Z" fill="#FF73A7"/>
<path d="M347.441 450.155C346.477 450.569 345.359 450.123 344.945 449.159C344.531 448.195 344.977 447.078 345.942 446.664C346.906 446.25 348.023 446.696 348.437 447.66C348.851 448.624 348.405 449.741 347.441 450.155Z" fill="#FFA600"/>
<path d="M379.132 386.595C378.32 386.944 377.379 386.568 377.031 385.756C376.682 384.944 377.058 384.003 377.87 383.655C378.682 383.306 379.622 383.682 379.971 384.494C380.32 385.306 379.944 386.246 379.132 386.595Z" fill="#FF73A7"/>
<path d="M295.14 541.501C293.872 542.045 292.402 541.459 291.857 540.19C291.312 538.921 291.899 537.451 293.168 536.906C294.436 536.362 295.906 536.948 296.451 538.217C296.996 539.486 296.409 540.956 295.14 541.501Z" fill="#FFA600"/>
<path d="M326.332 552.05C325.367 552.464 324.25 552.018 323.836 551.054C323.422 550.09 323.868 548.972 324.832 548.558C325.796 548.144 326.914 548.59 327.328 549.554C327.742 550.519 327.296 551.636 326.332 552.05Z" fill="#B8E4FA"/>
<path d="M204.807 551.883C204.096 552.188 203.273 551.859 202.968 551.149C202.663 550.438 202.991 549.615 203.702 549.31C204.412 549.005 205.236 549.334 205.541 550.044C205.846 550.755 205.517 551.578 204.807 551.883Z" fill="#B8E4FA"/>
<path d="M300.109 496.054C299.145 496.468 298.027 496.022 297.613 495.058C297.199 494.093 297.645 492.976 298.61 492.562C299.574 492.148 300.691 492.594 301.105 493.558C301.519 494.523 301.073 495.64 300.109 496.054Z" fill="#B8E4FA"/>
<path d="M258.644 456.505C257.68 456.919 256.563 456.473 256.148 455.509C255.734 454.545 256.181 453.427 257.145 453.013C258.109 452.599 259.226 453.045 259.64 454.01C260.054 454.974 259.608 456.091 258.644 456.505Z" fill="#FFA600"/>
<path d="M241.082 505.075C240.117 505.489 239 505.043 238.586 504.079C238.172 503.115 238.618 501.998 239.582 501.584C240.547 501.17 241.664 501.616 242.078 502.58C242.492 503.544 242.046 504.661 241.082 505.075Z" fill="#8118B4"/>
<path d="M313.023 348.704C311.754 349.249 310.284 348.662 309.74 347.393C309.195 346.124 309.782 344.654 311.05 344.109C312.319 343.565 313.789 344.152 314.334 345.42C314.879 346.689 314.292 348.159 313.023 348.704Z" fill="#FFA600"/>
<path d="M291.523 322.458C290.559 322.872 289.442 322.426 289.028 321.462C288.614 320.498 289.059 319.38 290.024 318.966C290.988 318.552 292.105 318.998 292.519 319.963C292.933 320.927 292.487 322.044 291.523 322.458Z" fill="#B8E4FA"/>
<path d="M262.835 402.141C261.211 402.839 259.329 402.087 258.632 400.464C257.934 398.84 258.686 396.958 260.31 396.261C261.934 395.563 263.815 396.314 264.513 397.938C265.21 399.562 264.459 401.444 262.835 402.141Z" fill="#FF73A7"/>
<path d="M285.167 383.952C284.203 384.366 283.086 383.92 282.672 382.956C282.258 381.992 282.704 380.875 283.668 380.461C284.632 380.047 285.75 380.493 286.164 381.457C286.578 382.421 286.132 383.538 285.167 383.952Z" fill="#B8E4FA"/>
<path d="M300.503 439.183C299.539 439.597 298.422 439.151 298.008 438.187C297.594 437.222 298.04 436.105 299.004 435.691C299.968 435.277 301.086 435.723 301.5 436.687C301.914 437.651 301.468 438.769 300.503 439.183Z" fill="#FFA600"/>
<path d="M340.57 406.527C339.606 406.941 338.488 406.494 338.074 405.53C337.66 404.566 338.106 403.449 339.071 403.035C340.035 402.621 341.152 403.067 341.566 404.031C341.98 404.995 341.534 406.113 340.57 406.527Z" fill="#8118B4"/>
<path d="M306.839 407.298C305.875 407.712 304.758 407.266 304.344 406.302C303.93 405.338 304.376 404.22 305.34 403.806C306.304 403.392 307.422 403.838 307.836 404.803C308.25 405.767 307.804 406.884 306.839 407.298Z" fill="#8118B4"/>
<path d="M137.504 596.889C136.083 597.499 134.436 596.842 133.826 595.421C133.216 594 133.873 592.353 135.294 591.743C136.715 591.133 138.362 591.791 138.972 593.212C139.582 594.632 138.925 596.279 137.504 596.889Z" fill="#8118B4"/>
<path d="M187.944 643.141C187.437 643.358 186.849 643.124 186.631 642.616C186.413 642.109 186.648 641.521 187.155 641.303C187.663 641.085 188.251 641.32 188.469 641.827C188.687 642.335 188.452 642.923 187.944 643.141Z" fill="#FF73A7"/>
<path d="M205.855 665.595C204.891 666.009 203.773 665.563 203.359 664.599C202.945 663.634 203.391 662.517 204.356 662.103C205.32 661.689 206.437 662.135 206.851 663.099C207.265 664.064 206.819 665.181 205.855 665.595Z" fill="#FFA600"/>
<path d="M278.011 653.439C277.199 653.788 276.258 653.412 275.91 652.6C275.561 651.788 275.936 650.847 276.748 650.498C277.56 650.15 278.501 650.525 278.85 651.337C279.199 652.149 278.823 653.09 278.011 653.439Z" fill="#FF73A7"/>
<path d="M270.381 575.093C269.062 575.66 267.533 575.049 266.966 573.73C266.4 572.41 267.01 570.881 268.33 570.315C269.649 569.748 271.178 570.359 271.745 571.678C272.311 572.998 271.701 574.526 270.381 575.093Z" fill="#FFA600"/>
<path d="M278.593 540.987C277.629 541.401 276.512 540.955 276.098 539.991C275.684 539.027 276.13 537.91 277.094 537.496C278.058 537.082 279.175 537.528 279.589 538.492C280.004 539.456 279.557 540.573 278.593 540.987Z" fill="#B8E4FA"/>
<path d="M286.283 628.341C284.608 629.06 282.667 628.286 281.948 626.611C281.229 624.936 282.004 622.996 283.679 622.277C285.353 621.558 287.294 622.332 288.013 624.007C288.732 625.682 287.957 627.622 286.283 628.341Z" fill="#FF73A7"/>
<path d="M195.716 565.691C194.041 566.41 192.101 565.635 191.382 563.96C190.663 562.286 191.438 560.345 193.112 559.626C194.787 558.907 196.727 559.682 197.447 561.357C198.166 563.031 197.391 564.972 195.716 565.691Z" fill="#FF73A7"/>
<path d="M223.32 573.208C222.356 573.622 221.238 573.176 220.824 572.212C220.41 571.248 220.856 570.13 221.821 569.716C222.785 569.302 223.902 569.748 224.316 570.713C224.73 571.677 224.284 572.794 223.32 573.208Z" fill="#B8E4FA"/>
<path d="M186.441 619.624C185.477 620.038 184.359 619.592 183.945 618.628C183.531 617.664 183.977 616.546 184.942 616.132C185.906 615.718 187.023 616.164 187.437 617.129C187.851 618.093 187.405 619.21 186.441 619.624Z" fill="#FFA600"/>
<path d="M238.109 633.245C237.145 633.659 236.027 633.213 235.613 632.249C235.199 631.285 235.645 630.168 236.61 629.754C237.574 629.34 238.691 629.786 239.105 630.75C239.519 631.714 239.073 632.831 238.109 633.245Z" fill="#8118B4"/>
<path d="M216.921 605.448C215.957 605.862 214.84 605.416 214.426 604.452C214.012 603.488 214.458 602.371 215.422 601.957C216.386 601.543 217.504 601.989 217.918 602.953C218.332 603.917 217.886 605.034 216.921 605.448Z" fill="#8118B4"/>
<g opacity="0.29">
<path opacity="0.29" d="M615.361 277.004C613.838 277.657 612.074 276.953 611.42 275.431C610.767 273.908 611.471 272.144 612.993 271.49C614.516 270.837 616.28 271.541 616.934 273.063C617.587 274.586 616.883 276.35 615.361 277.004Z" fill="#8118B4"/>
<path opacity="0.29" d="M688.103 297.135C687.545 297.375 686.898 297.117 686.659 296.558C686.419 296 686.677 295.353 687.235 295.114C687.794 294.874 688.44 295.132 688.68 295.69C688.92 296.249 688.662 296.895 688.103 297.135Z" fill="#FF73A7"/>
<path opacity="0.29" d="M716.251 310.733C715.185 311.19 713.95 310.697 713.493 309.632C713.035 308.566 713.528 307.331 714.594 306.873C715.66 306.416 716.894 306.909 717.352 307.975C717.81 309.04 717.317 310.275 716.251 310.733Z" fill="#FFA600"/>
<g opacity="0.29">
<path opacity="0.29" d="M616.264 375.431C614.793 376.063 613.087 375.382 612.455 373.91C611.823 372.438 612.504 370.733 613.976 370.101C615.448 369.469 617.153 370.15 617.785 371.622C618.417 373.093 617.736 374.799 616.264 375.431Z" fill="#FFA600"/>
<path opacity="0.29" d="M641.716 402.264C640.65 402.722 639.415 402.229 638.958 401.163C638.5 400.097 638.993 398.862 640.059 398.405C641.124 397.947 642.359 398.44 642.817 399.506C643.274 400.572 642.781 401.806 641.716 402.264Z" fill="#B8E4FA"/>
<path opacity="0.29" d="M558.689 359.45C556.862 360.235 554.745 359.39 553.961 357.563C553.176 355.736 554.021 353.619 555.848 352.834C557.675 352.05 559.792 352.895 560.577 354.722C561.361 356.549 560.516 358.666 558.689 359.45Z" fill="#FF73A7"/>
<path opacity="0.29" d="M669.9 312.786C668.073 313.571 665.956 312.726 665.172 310.899C664.387 309.072 665.232 306.955 667.059 306.17C668.886 305.386 671.003 306.231 671.788 308.058C672.572 309.885 671.727 312.002 669.9 312.786Z" fill="#FF73A7"/>
<path opacity="0.29" d="M519.218 338.744C518.406 339.092 517.465 338.717 517.117 337.905C516.768 337.093 517.144 336.152 517.956 335.803C518.768 335.454 519.708 335.83 520.057 336.642C520.406 337.454 520.03 338.395 519.218 338.744Z" fill="#B8E4FA"/>
<path opacity="0.29" d="M644.622 332.237C643.556 332.694 642.321 332.201 641.864 331.136C641.406 330.07 641.899 328.835 642.965 328.377C644.031 327.92 645.265 328.413 645.723 329.478C646.181 330.544 645.688 331.779 644.622 332.237Z" fill="#B8E4FA"/>
<path opacity="0.29" d="M623.47 270.799C622.404 271.257 621.169 270.764 620.711 269.698C620.254 268.632 620.747 267.397 621.813 266.94C622.878 266.482 624.113 266.975 624.571 268.041C625.028 269.107 624.535 270.342 623.47 270.799Z" fill="#FFA600"/>
<path opacity="0.29" d="M580.438 310.496C579.373 310.954 578.138 310.461 577.68 309.395C577.223 308.33 577.716 307.095 578.781 306.637C579.847 306.18 581.082 306.673 581.539 307.738C581.997 308.804 581.504 310.039 580.438 310.496Z" fill="#8118B4"/>
</g>
<g opacity="0.29">
<path opacity="0.29" d="M726.716 153.118C725.65 153.575 724.415 153.082 723.958 152.016C723.5 150.951 723.993 149.716 725.059 149.258C726.124 148.801 727.359 149.294 727.817 150.359C728.274 151.425 727.781 152.66 726.716 153.118Z" fill="#B8E4FA"/>
<path opacity="0.29" d="M656.904 218.136C655.077 218.92 652.96 218.075 652.176 216.248C651.391 214.421 652.236 212.304 654.063 211.52C655.89 210.736 658.007 211.581 658.791 213.408C659.576 215.234 658.731 217.351 656.904 218.136Z" fill="#FF73A7"/>
<path opacity="0.29" d="M688.188 211.668C687.123 212.126 685.888 211.633 685.43 210.567C684.973 209.501 685.466 208.267 686.531 207.809C687.597 207.351 688.832 207.844 689.289 208.91C689.747 209.976 689.254 211.211 688.188 211.668Z" fill="#B8E4FA"/>
<path opacity="0.29" d="M674.774 275.215C673.709 275.673 672.474 275.18 672.016 274.114C671.559 273.048 672.052 271.813 673.117 271.356C674.183 270.898 675.418 271.391 675.875 272.457C676.333 273.523 675.84 274.758 674.774 275.215Z" fill="#FFA600"/>
<path opacity="0.29" d="M732.04 263.36C730.974 263.817 729.739 263.324 729.282 262.259C728.824 261.193 729.317 259.958 730.383 259.5C731.449 259.043 732.683 259.536 733.141 260.601C733.599 261.667 733.106 262.902 732.04 263.36Z" fill="#8118B4"/>
</g>
<path opacity="0.29" d="M697.77 246.405C696.705 246.862 695.47 246.369 695.012 245.304C694.555 244.238 695.048 243.003 696.113 242.545C697.179 242.088 698.414 242.581 698.872 243.646C699.329 244.712 698.836 245.947 697.77 246.405Z" fill="#8118B4"/>
</g>
<path d="M465.525 219.777C464.002 220.431 462.238 219.726 461.584 218.204C460.931 216.682 461.635 214.917 463.157 214.264C464.68 213.61 466.444 214.314 467.098 215.837C467.751 217.359 467.047 219.123 465.525 219.777Z" fill="#8118B4"/>
<path d="M538.361 239.87C537.803 240.109 537.156 239.851 536.916 239.293C536.677 238.735 536.935 238.088 537.493 237.848C538.051 237.608 538.698 237.867 538.938 238.425C539.178 238.983 538.919 239.63 538.361 239.87Z" fill="#FF73A7"/>
<path d="M566.509 253.467C565.443 253.925 564.208 253.432 563.751 252.366C563.293 251.3 563.786 250.065 564.852 249.608C565.917 249.15 567.152 249.643 567.61 250.709C568.067 251.775 567.574 253.01 566.509 253.467Z" fill="#FFA600"/>
<path d="M631.434 206.217C630.521 206.61 629.462 206.187 629.07 205.274C628.678 204.36 629.101 203.302 630.014 202.909C630.928 202.517 631.986 202.94 632.378 203.853C632.77 204.767 632.348 205.825 631.434 206.217Z" fill="#FF73A7"/>
<path d="M464.358 322.249C462.886 322.881 461.181 322.2 460.549 320.729C459.917 319.257 460.598 317.551 462.07 316.92C463.541 316.288 465.247 316.968 465.879 318.44C466.51 319.912 465.83 321.617 464.358 322.249Z" fill="#FFA600"/>
<path d="M489.809 349.082C488.744 349.54 487.509 349.047 487.051 347.981C486.594 346.916 487.087 345.681 488.152 345.223C489.218 344.765 490.453 345.258 490.911 346.324C491.368 347.39 490.875 348.625 489.809 349.082Z" fill="#B8E4FA"/>
<path d="M406.783 306.269C404.956 307.053 402.839 306.208 402.055 304.381C401.27 302.554 402.115 300.437 403.942 299.653C405.769 298.868 407.886 299.713 408.67 301.54C409.455 303.367 408.61 305.484 406.783 306.269Z" fill="#FF73A7"/>
<path d="M518.033 259.696C516.206 260.481 514.089 259.636 513.304 257.809C512.52 255.982 513.365 253.865 515.192 253.081C517.019 252.296 519.136 253.141 519.92 254.968C520.705 256.795 519.86 258.912 518.033 259.696Z" fill="#FF73A7"/>
<path d="M367.312 285.562C366.5 285.911 365.559 285.535 365.21 284.723C364.862 283.911 365.237 282.97 366.049 282.621C366.861 282.273 367.802 282.648 368.151 283.46C368.499 284.272 368.124 285.213 367.312 285.562Z" fill="#B8E4FA"/>
<path d="M492.72 279.055C491.654 279.513 490.419 279.02 489.961 277.954C489.504 276.888 489.997 275.653 491.062 275.196C492.128 274.738 493.363 275.231 493.821 276.297C494.278 277.363 493.785 278.597 492.72 279.055Z" fill="#B8E4FA"/>
<path d="M471.563 217.618C470.498 218.075 469.263 217.582 468.805 216.516C468.348 215.451 468.841 214.216 469.906 213.758C470.972 213.301 472.207 213.794 472.664 214.859C473.122 215.925 472.629 217.16 471.563 217.618Z" fill="#FFA600"/>
<path d="M428.532 257.315C427.466 257.772 426.231 257.279 425.774 256.214C425.316 255.148 425.809 253.913 426.875 253.455C427.941 252.998 429.176 253.491 429.633 254.557C430.091 255.622 429.598 256.857 428.532 257.315Z" fill="#8118B4"/>
<path d="M585.178 133.466C583.707 134.098 582.001 133.417 581.369 131.945C580.737 130.474 581.418 128.768 582.89 128.136C584.362 127.504 586.067 128.185 586.699 129.657C587.331 131.129 586.65 132.834 585.178 133.466Z" fill="#FFA600"/>
<path d="M576.974 95.8519C575.908 96.3095 574.673 95.8165 574.215 94.7508C573.758 93.6851 574.251 92.4502 575.316 91.9926C576.382 91.535 577.617 92.028 578.075 93.0937C578.532 94.1594 578.039 95.3943 576.974 95.8519Z" fill="#B8E4FA"/>
<path d="M626.529 178.069C624.702 178.854 622.585 178.009 621.801 176.182C621.016 174.355 621.861 172.238 623.688 171.454C625.515 170.669 627.632 171.514 628.416 173.341C629.201 175.168 628.356 177.285 626.529 178.069Z" fill="#FF73A7"/>
<path d="M507.162 160.87C505.335 161.655 503.218 160.81 502.433 158.983C501.649 157.156 502.494 155.039 504.321 154.254C506.148 153.47 508.265 154.315 509.049 156.142C509.834 157.969 508.989 160.086 507.162 160.87Z" fill="#FF73A7"/>
<path d="M538.446 154.403C537.381 154.86 536.146 154.367 535.688 153.302C535.23 152.236 535.723 151.001 536.789 150.543C537.855 150.086 539.09 150.579 539.547 151.644C540.005 152.71 539.512 153.945 538.446 154.403Z" fill="#B8E4FA"/>
<path d="M524.938 217.991C523.873 218.448 522.638 217.955 522.18 216.889C521.723 215.824 522.216 214.589 523.281 214.131C524.347 213.674 525.582 214.167 526.039 215.232C526.497 216.298 526.004 217.533 524.938 217.991Z" fill="#FFA600"/>
<path d="M582.298 206.094C581.232 206.552 579.997 206.059 579.539 204.993C579.082 203.927 579.575 202.692 580.641 202.235C581.706 201.777 582.941 202.27 583.399 203.336C583.856 204.402 583.364 205.636 582.298 206.094Z" fill="#8118B4"/>
<path d="M548.028 189.139C546.963 189.597 545.728 189.104 545.27 188.038C544.812 186.972 545.305 185.737 546.371 185.28C547.437 184.822 548.672 185.315 549.129 186.381C549.587 187.447 549.094 188.681 548.028 189.139Z" fill="#8118B4"/>
<path d="M397.359 425.239C395.938 425.849 394.292 425.192 393.682 423.771C393.072 422.35 393.729 420.703 395.15 420.093C396.571 419.483 398.217 420.14 398.827 421.561C399.438 422.982 398.78 424.629 397.359 425.239Z" fill="#8118B4"/>
<path d="M463.761 443.523C463.253 443.741 462.665 443.506 462.447 442.999C462.23 442.492 462.464 441.903 462.972 441.686C463.479 441.468 464.067 441.702 464.285 442.21C464.503 442.717 464.268 443.305 463.761 443.523Z" fill="#FF73A7"/>
<path d="M489.425 455.902C488.461 456.316 487.344 455.87 486.93 454.905C486.516 453.941 486.962 452.824 487.926 452.41C488.89 451.996 490.008 452.442 490.422 453.406C490.836 454.37 490.389 455.488 489.425 455.902Z" fill="#FFA600"/>
<path d="M548.695 412.714C547.883 413.063 546.942 412.687 546.593 411.875C546.245 411.063 546.62 410.122 547.432 409.774C548.244 409.425 549.185 409.801 549.534 410.613C549.882 411.425 549.507 412.366 548.695 412.714Z" fill="#FF73A7"/>
<path d="M398.104 514.921C396.784 515.488 395.256 514.877 394.689 513.558C394.122 512.239 394.733 510.71 396.052 510.143C397.372 509.577 398.901 510.187 399.467 511.506C400.034 512.826 399.423 514.355 398.104 514.921Z" fill="#FFA600"/>
<path d="M421.402 539.525C420.438 539.939 419.32 539.493 418.906 538.528C418.492 537.564 418.938 536.447 419.903 536.033C420.867 535.619 421.984 536.065 422.398 537.029C422.812 537.993 422.366 539.111 421.402 539.525Z" fill="#B8E4FA"/>
<path d="M345.634 500.447C343.959 501.166 342.019 500.391 341.3 498.716C340.581 497.042 341.355 495.101 343.03 494.382C344.705 493.663 346.645 494.438 347.364 496.112C348.084 497.787 347.309 499.728 345.634 500.447Z" fill="#FF73A7"/>
<path d="M447.158 457.835C445.483 458.554 443.542 457.78 442.823 456.105C442.104 454.43 442.879 452.49 444.554 451.771C446.228 451.052 448.169 451.826 448.888 453.501C449.607 455.176 448.832 457.116 447.158 457.835Z" fill="#FF73A7"/>
<path d="M309.551 481.552C308.79 481.878 307.908 481.526 307.581 480.765C307.254 480.004 307.607 479.122 308.368 478.795C309.129 478.468 310.011 478.82 310.338 479.581C310.665 480.343 310.313 481.225 309.551 481.552Z" fill="#B8E4FA"/>
<path d="M424.089 475.577C423.125 475.991 422.008 475.545 421.594 474.581C421.18 473.617 421.626 472.5 422.59 472.086C423.554 471.672 424.672 472.118 425.086 473.082C425.5 474.046 425.054 475.163 424.089 475.577Z" fill="#B8E4FA"/>
<path d="M404.773 419.444C403.809 419.859 402.691 419.412 402.277 418.448C401.863 417.484 402.309 416.367 403.274 415.953C404.238 415.539 405.355 415.985 405.769 416.949C406.183 417.913 405.737 419.03 404.773 419.444Z" fill="#FFA600"/>
<path d="M365.484 455.685C364.52 456.099 363.402 455.653 362.988 454.688C362.574 453.724 363.02 452.607 363.985 452.193C364.949 451.779 366.066 452.225 366.48 453.189C366.894 454.153 366.448 455.271 365.484 455.685Z" fill="#8118B4"/>
<path d="M506.499 346.38C505.179 346.947 503.65 346.336 503.084 345.017C502.517 343.697 503.127 342.169 504.447 341.602C505.766 341.035 507.295 341.646 507.862 342.965C508.428 344.285 507.818 345.814 506.499 346.38Z" fill="#FFA600"/>
<path d="M499.003 311.944C498.039 312.359 496.922 311.913 496.508 310.948C496.094 309.984 496.54 308.867 497.504 308.453C498.468 308.039 499.586 308.485 500 309.449C500.414 310.413 499.968 311.53 499.003 311.944Z" fill="#B8E4FA"/>
<path d="M544.224 387.099C542.549 387.818 540.609 387.043 539.89 385.369C539.171 383.694 539.945 381.753 541.62 381.034C543.295 380.315 545.235 381.09 545.954 382.765C546.673 384.439 545.899 386.38 544.224 387.099Z" fill="#FF73A7"/>
<path d="M435.294 371.404C433.62 372.123 431.679 371.348 430.96 369.673C430.241 367.999 431.016 366.058 432.69 365.339C434.365 364.62 436.306 365.395 437.025 367.069C437.744 368.744 436.969 370.685 435.294 371.404Z" fill="#FF73A7"/>
<path d="M463.773 365.488C462.809 365.902 461.691 365.455 461.277 364.491C460.863 363.527 461.309 362.41 462.274 361.996C463.238 361.582 464.355 362.028 464.769 362.992C465.183 363.956 464.737 365.074 463.773 365.488Z" fill="#B8E4FA"/>
<path d="M451.574 423.507C450.61 423.921 449.492 423.475 449.078 422.511C448.664 421.547 449.11 420.429 450.074 420.015C451.039 419.601 452.156 420.047 452.57 421.012C452.984 421.976 452.538 423.093 451.574 423.507Z" fill="#FFA600"/>
<path d="M503.855 412.704C502.891 413.118 501.774 412.672 501.36 411.708C500.946 410.744 501.391 409.627 502.356 409.213C503.32 408.799 504.437 409.245 504.851 410.209C505.265 411.173 504.819 412.29 503.855 412.704Z" fill="#8118B4"/>
<path d="M472.593 397.179C471.629 397.593 470.512 397.147 470.098 396.183C469.684 395.218 470.13 394.101 471.094 393.687C472.058 393.273 473.175 393.719 473.589 394.683C474.003 395.648 473.557 396.765 472.593 397.179Z" fill="#8118B4"/>
<path d="M858.049 -94.813C836.656 -99.0134 814.726 -101.677 792.811 -101.518C781.873 -101.392 770.857 -100.689 759.973 -98.4096C754.617 -97.198 749.195 -95.6317 744.299 -93.0942C741.805 -91.8057 739.43 -90.2415 737.435 -88.2968C735.44 -86.3521 733.814 -83.8037 733.199 -80.9276C732.584 -78.0516 732.993 -75.0712 734.006 -72.4589C735.018 -69.8466 736.583 -67.471 738.291 -65.2663C741.8 -60.8961 746.03 -57.38 750.458 -54.166C759.404 -47.7775 769.282 -42.7683 779.33 -38.3764C799.57 -29.7634 820.727 -23.8296 842.291 -19.4849C863.867 -15.3634 885.81 -12.9229 907.869 -13.2531C918.86 -13.5101 929.981 -14.4762 940.785 -16.939C946.194 -18.282 951.577 -19.9401 956.525 -22.609C958.98 -23.9894 961.355 -25.5536 963.402 -27.6296C965.357 -29.6662 966.984 -32.2146 967.56 -35.1825C968.175 -38.0586 967.674 -40.9995 966.569 -43.5724C965.556 -46.1847 963.9 -48.5208 962.139 -50.5942C958.578 -54.833 954.256 -58.3097 949.776 -61.3923C940.777 -67.6495 930.834 -72.3041 920.826 -76.6042C900.651 -84.8102 879.441 -90.6126 858.049 -94.813ZM858.049 -94.813C879.481 -90.5208 900.586 -84.4556 920.655 -75.9869C930.664 -71.6869 940.41 -66.7301 949.225 -60.394C953.613 -57.2719 957.751 -53.7163 961.142 -49.6219C962.811 -47.509 964.296 -45.3172 965.23 -42.8887C966.164 -40.4601 966.547 -37.7948 965.957 -35.3653C965.408 -32.8438 963.978 -30.5975 962.128 -28.8236C960.317 -26.9578 957.994 -25.525 955.592 -24.276C950.88 -21.8173 945.55 -20.2905 940.285 -19.1183C929.624 -16.8263 918.7 -16.1623 907.854 -16.0762C886.031 -15.9563 864.272 -18.4757 842.971 -22.7155C821.579 -26.9159 800.5 -32.6659 780.47 -41.0427C770.501 -45.2509 760.65 -49.9449 751.822 -56.0578C747.434 -59.1799 743.191 -62.4728 739.8 -66.5672C738.171 -68.5882 736.594 -70.7406 735.66 -73.1691C734.726 -75.5977 734.291 -78.1316 734.84 -80.653C735.298 -83.135 736.688 -85.4732 738.499 -87.339C740.31 -89.2048 742.594 -90.7295 744.956 -92.0705C749.721 -94.6605 755.011 -96.2791 760.237 -97.5432C770.91 -100.058 781.847 -100.946 792.838 -101.203C814.661 -101.323 836.512 -98.8426 858.049 -94.813Z" fill="url(#paint3_linear)"/>
<path d="M869.23 -139.989C844.646 -144.778 819.761 -148.24 794.785 -150.141C782.297 -151.091 769.744 -151.686 757.165 -151.835C744.585 -151.984 732.02 -151.595 719.52 -150.798C706.967 -149.871 694.481 -148.536 682.035 -146.348C669.588 -144.16 657.326 -141.289 645.341 -137.013C642.322 -135.934 639.394 -134.895 636.454 -133.633L632.043 -131.739L627.712 -129.661C624.811 -128.307 622.159 -126.624 619.337 -125.086L615.334 -122.497C614.639 -122.089 613.982 -121.59 613.379 -121.222L611.502 -119.763C610.281 -118.803 608.93 -117.896 607.788 -116.753L604.284 -113.508C602.132 -111.169 599.849 -108.883 598.039 -106.255C594.287 -101.053 591.389 -95.129 589.949 -88.8516C588.641 -82.5217 588.75 -75.9303 590.094 -69.7598C590.674 -66.6351 591.752 -63.6158 592.831 -60.5964L594.725 -56.1858C595.356 -54.7156 596.263 -53.3638 596.947 -52.0249L598.078 -49.8985C598.485 -49.2029 598.984 -48.5467 599.352 -47.9429C600.259 -46.5911 601.035 -45.2917 601.942 -43.9398C603.861 -41.4988 605.675 -38.7952 607.738 -36.525L610.8 -32.9424L614.098 -29.5701C616.2 -27.208 618.591 -25.1875 620.838 -22.9962C630.062 -14.4413 640.204 -7.04254 650.647 -0.20858C661.182 6.58591 672.111 12.7762 683.342 18.4016C728.225 40.8113 776.779 55.5501 826.025 65.312C850.701 70.0617 875.678 73.4849 900.837 75.3061C925.997 77.1272 951.3 77.2544 976.457 75.2677C989.101 74.3006 1001.69 72.7031 1014.06 70.3312C1026.52 67.9198 1038.89 64.7863 1050.83 60.4188C1053.81 59.2482 1056.83 58.1694 1059.73 56.8149L1064.14 54.9211L1068.43 52.7516C1071.34 51.3972 1074.04 49.5833 1076.77 48.0846C1078.12 47.1776 1079.47 46.2707 1080.73 45.4032C1081.39 44.9038 1082.08 44.4963 1082.74 43.9969L1084.62 42.5381C1085.8 41.4868 1087.15 40.5799 1088.33 39.5286L1091.84 36.283C1093.99 33.9443 1096.23 31.5661 1098 28.8469C1101.71 23.5527 1104.48 17.5763 1105.83 11.3384C1107.05 5.04796 1106.84 -1.50412 1105.37 -7.72703C1104.79 -10.8517 1103.62 -13.8316 1102.58 -16.759L1100.63 -21.0383C1100 -22.5085 1099.13 -23.7684 1098.41 -25.1992L1097.23 -27.1942C1096.82 -27.8899 1096.36 -28.4542 1095.95 -29.1498L1093.31 -33.0216C1091.39 -35.4626 1089.53 -38.0349 1087.46 -40.3051L1084.35 -43.7563L1081.05 -47.1287C1078.9 -49.3594 1076.5 -51.3799 1074.26 -53.5712C1064.93 -61.8634 1054.74 -69.1308 1044.24 -75.8334C1033.65 -82.4966 1022.75 -88.3717 1011.47 -93.8658C1000.27 -99.3993 988.822 -104.276 977.172 -108.851C965.522 -113.425 953.754 -117.514 941.789 -121.301C918.149 -129.216 893.813 -135.2 869.23 -139.989ZM869.23 -139.989C918.253 -130.24 966.544 -115.606 1011.12 -93.3928C1022.22 -87.8198 1033.11 -81.7215 1043.52 -74.9795C1053.92 -68.2374 1063.84 -60.8516 1072.98 -52.4805C1075.19 -50.3811 1077.49 -48.3211 1079.55 -46.0509L1082.72 -42.731L1085.74 -39.2403C1087.81 -36.9702 1089.54 -34.4502 1091.37 -31.9698L1093.88 -28.1505C1094.29 -27.4548 1094.75 -26.8905 1095.15 -26.1949L1096.25 -24.1604C1096.93 -22.8215 1097.8 -21.5615 1098.39 -20.1832L1100.16 -16.0483C1101.16 -13.2127 1102.16 -10.3772 1102.7 -7.34439C1103.93 -1.44957 1104.03 4.60358 1102.83 10.4475C1101.51 16.239 1098.9 21.8214 1095.31 26.6296C1093.64 29.0862 1091.45 31.333 1089.35 33.5404L1085.99 36.6153C1084.9 37.6271 1083.55 38.534 1082.42 39.4539L1080.64 40.8732C1079.98 41.3726 1079.38 41.7407 1078.68 42.1483L1074.86 44.6588C1072.13 46.1575 1069.57 47.8006 1066.73 49.0237L1062.58 51.0224L1058.26 52.8768C1055.41 54.0999 1052.48 55.1392 1049.56 56.1785C1037.85 60.3357 1025.68 63.1671 1013.41 65.2764C1001.15 67.3856 988.703 68.8122 976.243 69.7004C963.782 70.5887 951.269 70.8467 938.821 70.7501C926.373 70.6536 913.872 69.9268 901.424 69.0686C888.975 68.2105 876.605 66.7745 864.248 65.1154C851.891 63.4562 839.652 61.3111 827.334 58.9822C802.881 54.2456 778.638 48.2219 755.064 40.7142C743.191 36.8881 731.462 32.8913 719.944 28.369C708.425 23.8468 697.024 18.8387 685.912 13.4889C674.761 8.04731 663.858 2.17221 653.441 -4.34663C643.024 -10.8655 632.961 -18.0805 623.803 -26.2284C621.596 -28.3278 619.205 -30.3483 617.181 -32.5266L613.923 -35.807L610.94 -39.2058C608.877 -41.476 607.142 -43.9959 605.17 -46.3056L602.568 -50.0854C602.2 -50.6892 601.701 -51.3454 601.332 -51.9491L600.281 -53.8918C599.597 -55.2306 598.73 -56.4906 598.138 -57.8689L596.27 -61.9644C595.271 -64.7999 594.179 -67.596 593.586 -70.4975C592.269 -76.3529 592.081 -82.3666 593.141 -88.2629C594.331 -94.1069 596.941 -99.6892 600.456 -104.681C602.083 -107.23 604.274 -109.477 606.373 -111.684L609.693 -114.851C610.782 -115.862 612.134 -116.769 613.223 -117.781L615.008 -119.2C615.664 -119.7 616.268 -120.068 616.964 -120.475L620.836 -123.117C623.566 -124.616 626.177 -126.391 628.987 -127.706L633.187 -129.836L637.506 -131.69C640.315 -133.005 643.242 -134.044 646.222 -135.215C657.984 -139.503 670.128 -142.65 682.495 -145.022C694.863 -147.394 707.231 -149.004 719.783 -149.932C769.69 -153.839 820.141 -149.383 869.23 -139.989Z" fill="url(#paint4_linear)"/>
<path d="M871.492 -154.999C830.257 -163.085 788.589 -169.136 746.595 -172.653C704.692 -176.209 662.437 -177.546 620.289 -175.338C599.215 -174.233 578.181 -172.276 557.345 -169.097C536.509 -165.918 515.739 -161.571 495.483 -155.268C475.266 -148.873 455.392 -140.666 437.792 -128.429C433.409 -125.458 429.183 -122.12 425.207 -118.454C421.231 -114.788 417.425 -110.978 414.172 -106.642C407.494 -98.1159 402.485 -88.2382 400.208 -77.5746C397.93 -66.911 398.45 -55.8159 401.07 -45.4051C402.334 -40.1799 404.189 -35.0997 406.372 -30.2691C408.555 -25.4385 411.053 -20.6343 413.839 -16.1718C425.013 1.99341 439.979 17.3329 455.89 31.0699C471.932 44.8593 489.194 56.9277 507.138 68.0503C525.042 79.081 543.537 89.2052 562.583 98.3312C638.634 134.783 719.995 159.268 802.716 175.77C844.136 183.777 885.987 189.75 928.165 193.187C938.683 194.113 949.306 194.775 959.851 195.254C970.395 195.732 980.992 196.08 991.509 196.243C1012.68 196.623 1033.9 196.109 1055.02 194.874C1076.15 193.638 1097.34 191.286 1118.28 187.845C1139.22 184.404 1160.06 179.702 1180.38 173.044C1200.57 166.334 1220.51 157.772 1238.08 145.22C1242.52 142.118 1246.7 138.688 1250.68 135.022C1254.66 131.356 1258.38 127.362 1261.64 123.026C1268.18 114.448 1273.11 104.386 1275.26 93.6702C1277.4 82.9541 1276.7 71.9381 1274.03 61.6586C1272.67 56.4729 1270.77 51.5239 1268.58 46.6933C1266.4 41.8627 1263.85 37.19 1260.97 32.7669C1249.6 14.9038 1234.53 -0.173018 1218.51 -13.6473C1202.41 -27.0821 1185 -38.9798 1166.99 -49.7478C1148.98 -60.5157 1130.33 -70.246 1111.45 -79.2276C1073.52 -97.112 1034.11 -111.857 994.022 -124.356C953.532 -136.79 912.728 -146.912 871.492 -154.999ZM871.492 -154.999C912.768 -146.82 953.519 -136.567 993.55 -123.936C1033.58 -111.305 1072.75 -96.1267 1110.48 -77.9401C1129.4 -68.8666 1147.72 -58.8867 1165.49 -47.9084C1183.27 -36.9302 1200.31 -24.8747 1216.14 -11.3216C1231.79 2.31054 1246.41 17.3614 1257.18 34.831C1259.92 39.2016 1262.3 43.7301 1264.32 48.4164C1266.33 53.1026 1268.16 57.8678 1269.3 62.8172C1271.78 72.6373 1272.17 82.9183 1270.07 92.7415C1267.89 102.604 1263.23 111.786 1256.99 119.799C1253.93 123.833 1250.27 127.472 1246.53 130.928C1242.79 134.384 1238.71 137.551 1234.41 140.483C1217.38 152.259 1197.87 160.308 1178.06 166.638C1158.08 172.823 1137.63 177.144 1116.88 180.283C1096.14 183.422 1075.29 185.301 1054.35 186.457C1012.51 188.639 970.481 187.316 928.71 183.812C886.939 180.308 845.495 174.27 804.39 166.236C763.286 158.202 722.614 148.132 682.754 135.645C642.894 123.159 603.649 108.558 565.978 90.7787C547.143 81.8889 528.662 72.3031 510.875 61.5481C493.129 50.8849 475.893 39.1316 459.996 25.933C444.191 12.6949 429.553 -2.13275 418.551 -19.3921C415.843 -23.6708 413.372 -28.1598 411.176 -32.7672C409.072 -37.414 407.283 -42.0872 406.045 -46.9973C403.478 -56.7778 402.906 -66.98 404.869 -76.8556C406.832 -86.7312 411.408 -96.0964 417.614 -104.202C420.631 -108.327 424.253 -112.059 427.953 -115.607C431.745 -119.194 435.787 -122.453 439.948 -125.437C456.957 -137.528 476.437 -145.893 496.312 -152.577C516.266 -159.077 536.878 -163.792 557.596 -167.246C578.314 -170.7 599.321 -172.973 620.316 -174.261C662.306 -176.837 704.588 -175.947 746.503 -172.614C788.484 -168.874 830.204 -162.954 871.492 -154.999Z" fill="url(#paint5_linear)"/>
<path d="M970.33 -169.904C897.77 -189.354 823.82 -205.704 748.534 -218.323C673.339 -230.983 596.873 -240.266 519.505 -244.048C480.82 -245.939 441.888 -246.634 402.89 -245.452C363.893 -244.27 324.648 -241.132 285.812 -235.013C247.054 -228.71 208.312 -219.584 172.292 -204.118C163.287 -200.251 154.571 -195.964 146.223 -191.074C137.836 -186.276 129.777 -180.966 122.402 -175.078C107.651 -163.303 95.3575 -149.1 87.7656 -133.325C80.2656 -117.59 77.6641 -100.584 79.1328 -84.237C79.8212 -76.0439 81.5992 -68.1011 83.968 -60.3031C86.3368 -52.5051 89.3884 -44.8914 93.0831 -37.5539C107.809 -8.07249 130.044 17.8585 154.733 41.6476C179.605 65.3577 207.299 86.7681 236.332 106.733C265.456 126.659 296.05 145.192 327.706 162.397C454.569 231.011 595.167 282.19 740.537 321.417C813.412 340.84 887.822 356.993 963.476 369.455C982.333 372.567 1001.34 375.508 1020.49 378.056C1039.56 380.643 1058.73 382.967 1077.92 385.068C1116.38 389.231 1155.09 392.198 1194.01 393.878C1232.93 395.559 1272.08 395.729 1311.32 394.114C1350.53 392.406 1389.93 388.873 1428.98 382.229C1467.85 375.44 1506.75 365.92 1542.76 349.916C1551.73 345.957 1560.45 341.448 1568.8 336.557C1577.15 331.667 1585.17 326.265 1592.47 320.194C1607.14 308.235 1619.22 293.796 1626.55 277.916C1633.79 262.075 1636.07 245.096 1634.37 228.96C1633.59 220.806 1631.63 212.942 1629.17 205.184C1626.61 197.464 1623.47 189.89 1619.72 182.684C1604.62 153.584 1582 128.034 1557.1 104.77C1531.89 81.5328 1504.04 60.5164 1474.66 41.0243C1445.29 21.5322 1414.49 3.52482 1382.77 -13.3265C1319.37 -47.1603 1252.16 -76.199 1183.16 -102.072C1114.11 -128.037 1042.94 -150.586 970.33 -169.904ZM970.33 -169.904C1042.84 -150.323 1113.92 -127.735 1182.82 -101.599C1251.63 -75.4239 1318.26 -45.7021 1381.23 -11.579C1412.72 5.48248 1443.05 23.9104 1471.96 43.5998C1500.82 63.4205 1528.12 84.6736 1552.57 107.911C1576.84 131.228 1598.57 156.726 1612.77 185.236C1616.34 192.298 1619.28 199.636 1621.53 207.158C1623.83 214.549 1625.49 222.216 1626.07 229.911C1627.46 245.312 1624.98 261.07 1618.08 275.676C1611.09 290.322 1599.66 303.5 1585.71 314.605C1578.76 320.203 1571.12 325.224 1563.15 329.733C1555.13 334.374 1546.78 338.503 1538.15 342.211C1503.41 357.125 1465.48 366.119 1427.32 372.277C1389.07 378.251 1350.37 381.377 1311.68 382.532C1273 383.688 1234.42 383.058 1195.96 381.18C1119 377.332 1042.98 368.074 968.18 355.573C893.248 343.018 819.653 326.734 747.355 307.389C675.098 288.136 604.229 265.784 535.486 240.016C466.835 214.208 399.98 185.235 336.93 151.69C305.471 134.943 274.838 117.08 245.766 97.7847C216.695 78.4893 189.146 57.6698 164.314 34.8131C139.796 11.9299 117.641 -13.0557 103.06 -41.1847C99.3916 -48.2071 96.3142 -55.3744 93.9194 -62.7259C91.5245 -70.0774 89.6811 -77.6657 88.9144 -85.2809C87.2495 -100.564 89.4579 -116.204 96.092 -130.915C102.857 -145.573 114.075 -158.987 127.815 -170.328C134.731 -176.019 142.33 -181.132 150.31 -185.864C158.291 -190.597 166.691 -194.857 175.289 -198.657C210.009 -214.109 248.095 -223.497 286.379 -230.141C324.835 -236.641 363.699 -240.16 402.591 -241.841C441.483 -243.522 480.402 -243.365 519.007 -241.658C596.31 -238.283 672.867 -229.801 748.167 -217.404C823.663 -205.31 897.757 -189.131 970.33 -169.904Z" fill="url(#paint6_linear)"/>
</g>
<path d="M596.053 290.082L593.913 291.436C593.822 291.476 593.769 291.607 593.717 291.738L593.705 294.246C593.732 294.561 593.272 294.759 593.062 294.522L590.96 292.922C590.829 292.869 590.697 292.817 590.605 292.857L588.19 293.567C587.914 293.686 587.533 293.305 587.638 293.042L588.451 290.626C588.503 290.494 588.463 290.403 588.385 290.219L586.847 288.158C586.637 287.922 586.886 287.489 587.201 287.462L589.748 287.565C589.88 287.618 590.064 287.539 590.116 287.408L591.625 285.345C591.821 285.043 592.307 285.161 592.334 285.476L593.044 287.891C593.084 287.983 593.163 288.167 593.294 288.22L595.711 289.032C596.263 289.557 596.329 289.964 596.053 290.082Z" fill="url(#paint7_linear)"/>
<path d="M322.324 488.243C324.474 483.619 323.933 479.825 330.874 472.927C335.821 467.973 339.191 460.867 338.701 453.895C338.25 447.777 346.784 446.615 350.287 441.846C353.684 437.34 359.645 435.761 363.253 431.491C366.572 427.562 367.539 420.944 371.029 417.16C396.091 390.619 426.933 368.67 462.585 353.361C475.082 347.995 487.79 343.627 500.577 340.205C504.581 339.138 508.442 340.528 512.525 339.645C515.794 338.894 519.285 335.872 522.633 335.305C540.698 332.01 558.922 330.606 576.951 331.027C582.23 331.155 587.576 334.736 592.881 335.179C600.104 335.778 607.193 333.278 614.297 334.363C634.494 337.553 654.115 342.95 673.12 350.46C673.488 350.303 673.816 350.053 674.144 349.803C677.176 347.74 679.89 342.656 682.477 342.09C684.799 339.895 693.125 340.783 702.187 344.401C712.169 348.385 719.185 354.079 717.979 357.1C717.983 363.193 716.476 367.54 716.781 372.306C763.31 401.083 801.851 443.955 825.09 498.077C885.218 638.113 820.411 800.452 680.374 860.581C540.338 920.71 377.999 855.902 317.87 715.866C285.333 639.835 289.452 557.424 322.324 488.243Z" fill="url(#paint8_linear)"/>
<path opacity="0.3" d="M322.325 488.243C324.476 483.62 323.935 479.826 330.876 472.927C335.823 467.974 339.193 460.868 338.702 453.896C338.252 447.777 346.786 446.616 350.288 441.847C353.686 437.341 359.646 435.761 363.254 431.491C366.574 427.563 367.541 420.944 371.031 417.16C396.093 390.619 426.935 368.67 462.587 353.362C475.084 347.996 487.791 343.628 500.578 340.205C504.582 339.139 508.444 340.528 512.527 339.646C514.207 339.25 515.966 338.278 517.633 337.344C519.183 357.683 514.434 383.12 496.167 399.125C472.047 420.256 414.932 424.864 403.563 485.575C395.569 528.294 418.059 639.982 447.039 697.842C457.032 717.82 377.458 734.248 337.173 752.96C329.877 741.292 323.474 728.914 317.872 715.866C285.335 639.836 289.454 557.425 322.325 488.243Z" fill="#392E66"/>
<path opacity="0.2" d="M322.326 488.242C324.476 483.619 323.935 479.824 330.876 472.926C335.823 467.972 339.193 460.866 338.702 453.894C338.252 447.776 346.786 446.614 350.288 441.846C353.686 437.34 359.646 435.76 363.254 431.49C366.574 427.562 367.541 420.943 371.031 417.159C376.805 411.089 382.88 405.215 389.205 399.67C402 388.408 389.795 398.002 373.654 432.139C309.787 566.759 353.685 646.944 382.624 704.712C390.579 720.451 359.676 729.584 332.401 744.887C327.116 735.62 322.212 725.973 317.872 715.865C285.335 639.834 289.454 557.424 322.326 488.242Z" fill="url(#paint9_linear)"/>
<path opacity="0.3" d="M499.043 690.965C499.043 690.965 353.865 470.456 462.699 442.335C520.91 427.353 547.736 408.216 563.911 366.555C569.075 353.237 580.912 342.278 591.91 334.943C592.265 335.009 592.488 335.022 592.843 335.087C600.065 335.686 607.154 333.187 614.258 334.272C614.836 334.35 615.414 334.428 615.9 334.546C598.204 341.491 585.869 352.556 580.982 368.04C569.412 404.459 612.756 481.073 747.514 477.843C813.862 476.236 499.043 690.965 499.043 690.965Z" fill="#392E66"/>
<path opacity="0.6" d="M698.173 353.817C690.736 350.847 685.454 346.569 686.375 344.261C687.297 341.953 694.073 342.489 701.51 345.458C708.947 348.427 714.23 352.705 713.308 355.013C712.387 357.321 705.611 356.786 698.173 353.817Z" fill="#351656"/>
</g>
<defs>
<linearGradient id="paint0_linear" x1="401.442" y1="-8.63028" x2="649.289" y2="568.594" gradientUnits="userSpaceOnUse">
<stop offset="0.611311" stop-color="#231E33"/>
<stop offset="1" stop-color="#522359"/>
</linearGradient>
<linearGradient id="paint1_linear" x1="401.442" y1="-8.63028" x2="649.289" y2="568.594" gradientUnits="userSpaceOnUse">
<stop offset="0.611311" stop-color="#231E33"/>
<stop offset="1" stop-color="#522359"/>
</linearGradient>
<linearGradient id="paint2_linear" x1="780.688" y1="296.399" x2="415.844" y2="525.854" gradientUnits="userSpaceOnUse">
<stop offset="0.611311" stop-color="#231E33"/>
<stop offset="1" stop-color="#522359"/>
</linearGradient>
<linearGradient id="paint3_linear" x1="821.025" y1="-126.163" x2="879.732" y2="10.5616" gradientUnits="userSpaceOnUse">
<stop stop-color="#370D24"/>
<stop offset="0.502762" stop-color="#602A6B"/>
<stop offset="1" stop-color="#EA4C89"/>
</linearGradient>
<linearGradient id="paint4_linear" x1="780.396" y1="-195.438" x2="915.341" y2="118.843" gradientUnits="userSpaceOnUse">
<stop stop-color="#370D24"/>
<stop offset="0.502762" stop-color="#602A6B"/>
<stop offset="1" stop-color="#EA4C89"/>
</linearGradient>
<linearGradient id="paint5_linear" x1="724.388" y1="-255.174" x2="951.057" y2="272.727" gradientUnits="userSpaceOnUse">
<stop stop-color="#370D24"/>
<stop offset="0.502762" stop-color="#602A6B"/>
<stop offset="1" stop-color="#EA4C89"/>
</linearGradient>
<linearGradient id="paint6_linear" x1="649.66" y1="-409.089" x2="1063.86" y2="555.572" gradientUnits="userSpaceOnUse">
<stop stop-color="#370D24"/>
<stop offset="0.502762" stop-color="#602A6B"/>
<stop offset="1" stop-color="#EA4C89"/>
</linearGradient>
<linearGradient id="paint7_linear" x1="589.076" y1="294.033" x2="592.716" y2="285.528" gradientUnits="userSpaceOnUse">
<stop offset="0.0567568" stop-color="#FF7E48"/>
<stop offset="0.3352" stop-color="#FF796F"/>
<stop offset="0.6072" stop-color="#FF768E"/>
<stop offset="0.838" stop-color="#FF74A0"/>
<stop offset="1" stop-color="#FF73A7"/>
</linearGradient>
<linearGradient id="paint8_linear" x1="462.585" y1="353.361" x2="680.374" y2="860.581" gradientUnits="userSpaceOnUse">
<stop stop-color="#623997"/>
<stop offset="1" stop-color="#662A67"/>
</linearGradient>
<linearGradient id="paint9_linear" x1="304.027" y1="434.014" x2="421.147" y2="706.781" gradientUnits="userSpaceOnUse">
<stop offset="0.611311" stop-color="#231E33"/>
<stop offset="1" stop-color="#522359"/>
</linearGradient>
</defs>
</svg>
