<svg width="511" height="1173" viewBox="0 0 511 1173" fill="none" xmlns="http://www.w3.org/2000/svg">
<mask id="mask0" mask-type="alpha" maskUnits="userSpaceOnUse" x="0" y="0" width="1322" height="1173">
<path d="M448.634 431.567C406.709 224.56 526.242 380.425 638.134 233.067C750.026 85.7103 1127.44 177.552 1105.39 233.067L1105.39 703.154C1086.17 664.312 811.743 658.334 798.074 763.865C769.948 981.005 470.897 1032.18 255.173 940.394C103.112 875.693 153.183 772.039 245.22 714.906C290.44 686.835 490.559 638.575 448.634 431.567Z" fill="url(#paint0_linear)"/>
</mask>
<g mask="url(#mask0)">
<path d="M448.634 431.567C406.709 224.56 526.242 380.425 638.134 233.067C750.026 85.7103 1127.44 177.552 1105.39 233.067L1105.39 703.154C1086.17 664.312 811.743 658.334 798.074 763.865C769.948 981.005 470.897 1032.18 255.173 940.394C103.112 875.693 153.183 772.039 245.22 714.906C290.44 686.835 490.559 638.575 448.634 431.567Z" fill="url(#paint1_linear)"/>
<path opacity="0.3" d="M732.742 687.154C781.577 666.861 826.724 668.641 843.192 672.067L894.816 731.492L569.446 1014.15L512.554 948.66C475.68 906.214 407.821 786.412 437.811 700.775C467.801 615.138 534.064 644.822 573.597 665.807C613.13 686.792 671.697 712.521 732.742 687.154Z" fill="url(#paint2_linear)"/>
<g opacity="0.3">
<path d="M376.781 726.086C375.517 726.877 373.851 726.494 373.059 725.23C372.268 723.966 372.651 722.3 373.915 721.509C375.179 720.718 376.845 721.101 377.636 722.365C378.427 723.628 378.044 725.295 376.781 726.086Z" fill="#8118B4"/>
<path d="M443.247 718.8C442.826 719.064 442.271 718.936 442.007 718.515C441.743 718.094 441.871 717.538 442.292 717.275C442.713 717.011 443.269 717.138 443.532 717.56C443.796 717.981 443.668 718.536 443.247 718.8Z" fill="#FF73A7"/>
<path d="M470.652 721.11C469.763 721.667 468.591 721.397 468.034 720.508C467.477 719.618 467.746 718.446 468.636 717.889C469.525 717.332 470.698 717.602 471.254 718.491C471.811 719.381 471.542 720.553 470.652 721.11Z" fill="#FFA600"/>
<path d="M508.709 661.294C507.96 661.763 506.973 661.536 506.504 660.787C506.035 660.038 506.262 659.051 507.011 658.582C507.76 658.113 508.747 658.34 509.216 659.089C509.685 659.837 509.458 660.825 508.709 661.294Z" fill="#FF73A7"/>
<path d="M389.672 571.241C388.783 571.798 387.61 571.528 387.053 570.639C386.496 569.749 386.766 568.577 387.655 568.02C388.545 567.463 389.717 567.733 390.274 568.622C390.831 569.511 390.561 570.684 389.672 571.241Z" fill="#B8E4FA"/>
<path d="M376.93 631.725C376.04 632.282 374.868 632.012 374.311 631.123C373.754 630.234 374.024 629.061 374.913 628.504C375.802 627.948 376.975 628.217 377.532 629.106C378.089 629.996 377.819 631.168 376.93 631.725Z" fill="#B8E4FA"/>
<path d="M386.356 688.235C385.466 688.792 384.294 688.522 383.737 687.633C383.18 686.743 383.449 685.571 384.339 685.014C385.228 684.457 386.401 684.727 386.958 685.616C387.514 686.506 387.245 687.678 386.356 688.235Z" fill="#FFA600"/>
<path d="M429.559 660.004C428.669 660.561 427.497 660.292 426.94 659.402C426.383 658.513 426.653 657.341 427.542 656.784C428.431 656.227 429.604 656.496 430.161 657.386C430.718 658.275 430.448 659.448 429.559 660.004Z" fill="#8118B4"/>
<path d="M434.699 674.245C433.81 674.802 432.637 674.532 432.081 673.643C431.524 672.753 431.793 671.581 432.683 671.024C433.572 670.467 434.744 670.737 435.301 671.626C435.858 672.515 435.589 673.688 434.699 674.245Z" fill="#8118B4"/>
<path d="M352.54 826.804C352.119 827.068 351.563 826.94 351.3 826.519C351.036 826.098 351.164 825.542 351.585 825.278C352.006 825.015 352.562 825.142 352.825 825.564C353.089 825.985 352.961 826.54 352.54 826.804Z" fill="#FF73A7"/>
<path d="M379.418 822.245C378.529 822.802 377.356 822.532 376.799 821.643C376.243 820.753 376.512 819.581 377.401 819.024C378.291 818.467 379.463 818.737 380.02 819.626C380.577 820.515 380.307 821.688 379.418 822.245Z" fill="#FFA600"/>
<path d="M400.995 754.579C400.246 755.048 399.258 754.821 398.789 754.072C398.32 753.323 398.547 752.336 399.296 751.867C400.045 751.398 401.032 751.625 401.501 752.374C401.97 753.123 401.743 754.11 400.995 754.579Z" fill="#FF73A7"/>
<path d="M341.73 920.527C340.56 921.26 339.017 920.906 338.284 919.735C337.552 918.565 337.906 917.022 339.076 916.29C340.247 915.557 341.789 915.912 342.522 917.082C343.255 918.252 342.9 919.795 341.73 920.527Z" fill="#FFA600"/>
<path d="M374.172 926.17C373.283 926.727 372.11 926.458 371.553 925.568C370.996 924.679 371.266 923.507 372.155 922.95C373.045 922.393 374.217 922.662 374.774 923.552C375.331 924.441 375.061 925.614 374.172 926.17Z" fill="#B8E4FA"/>
<path d="M254.057 944.63C253.402 945.04 252.538 944.842 252.128 944.186C251.717 943.531 251.916 942.667 252.571 942.257C253.227 941.846 254.09 942.045 254.501 942.7C254.911 943.356 254.713 944.219 254.057 944.63Z" fill="#B8E4FA"/>
<path d="M339.68 874.854C338.79 875.411 337.618 875.141 337.061 874.252C336.504 873.363 336.774 872.19 337.663 871.633C338.552 871.076 339.725 871.346 340.282 872.235C340.839 873.125 340.569 874.297 339.68 874.854Z" fill="#B8E4FA"/>
<path d="M292.641 842.127C291.751 842.684 290.579 842.415 290.022 841.526C289.465 840.636 289.735 839.464 290.624 838.907C291.513 838.35 292.686 838.619 293.243 839.509C293.8 840.398 293.53 841.571 292.641 842.127Z" fill="#FFA600"/>
<path d="M282.731 892.815C281.841 893.372 280.669 893.102 280.112 892.213C279.555 891.324 279.825 890.151 280.714 889.594C281.603 889.037 282.776 889.307 283.333 890.196C283.889 891.086 283.62 892.258 282.731 892.815Z" fill="#8118B4"/>
<path d="M329.859 727.268C328.689 728 327.146 727.646 326.413 726.476C325.68 725.305 326.035 723.763 327.205 723.03C328.376 722.297 329.918 722.652 330.651 723.822C331.384 724.992 331.029 726.535 329.859 727.268Z" fill="#FFA600"/>
<path d="M304.59 704.626C303.701 705.182 302.528 704.913 301.971 704.023C301.414 703.134 301.684 701.962 302.573 701.405C303.463 700.848 304.635 701.117 305.192 702.007C305.749 702.896 305.479 704.069 304.59 704.626Z" fill="#B8E4FA"/>
<path d="M288.45 787.765C286.952 788.703 284.977 788.249 284.039 786.751C283.102 785.253 283.556 783.279 285.053 782.341C286.551 781.403 288.526 781.857 289.464 783.355C290.402 784.853 289.948 786.827 288.45 787.765Z" fill="#FF73A7"/>
<path d="M307.734 766.37C306.845 766.927 305.673 766.657 305.116 765.768C304.559 764.878 304.828 763.706 305.718 763.149C306.607 762.592 307.78 762.862 308.336 763.751C308.893 764.64 308.624 765.813 307.734 766.37Z" fill="#B8E4FA"/>
<path d="M331.355 818.596C330.466 819.153 329.294 818.884 328.737 817.994C328.18 817.105 328.449 815.932 329.339 815.376C330.228 814.819 331.401 815.088 331.958 815.978C332.514 816.867 332.245 818.039 331.355 818.596Z" fill="#FFA600"/>
<path d="M365.941 780.186C365.052 780.743 363.88 780.473 363.323 779.584C362.766 778.695 363.035 777.522 363.925 776.965C364.814 776.408 365.987 776.678 366.543 777.567C367.1 778.457 366.831 779.629 365.941 780.186Z" fill="#8118B4"/>
<path d="M332.727 786.118C331.837 786.675 330.665 786.405 330.108 785.516C329.551 784.626 329.821 783.454 330.71 782.897C331.599 782.34 332.772 782.61 333.329 783.499C333.886 784.388 333.616 785.561 332.727 786.118Z" fill="#8118B4"/>
<path d="M194.446 999.42C193.136 1000.24 191.408 999.843 190.587 998.533C189.767 997.222 190.164 995.494 191.475 994.673C192.785 993.853 194.513 994.25 195.334 995.561C196.154 996.871 195.757 998.599 194.446 999.42Z" fill="#8118B4"/>
<path d="M251.382 1037.39C250.914 1037.69 250.297 1037.55 250.004 1037.08C249.71 1036.61 249.852 1035.99 250.32 1035.7C250.789 1035.41 251.406 1035.55 251.699 1036.02C251.992 1036.48 251.85 1037.1 251.382 1037.39Z" fill="#FF73A7"/>
<path d="M272.524 1056.84C271.634 1057.4 270.462 1057.13 269.905 1056.24C269.348 1055.35 269.617 1054.17 270.507 1053.62C271.396 1053.06 272.569 1053.33 273.126 1054.22C273.682 1055.11 273.413 1056.28 272.524 1056.84Z" fill="#FFA600"/>
<path d="M341.963 1033.77C341.214 1034.24 340.227 1034.01 339.758 1033.26C339.289 1032.51 339.516 1031.53 340.265 1031.06C341.014 1030.59 342.001 1030.81 342.47 1031.56C342.939 1032.31 342.712 1033.3 341.963 1033.77Z" fill="#FF73A7"/>
<path d="M322.419 957.518C321.202 958.28 319.598 957.911 318.836 956.694C318.074 955.477 318.443 953.872 319.66 953.11C320.877 952.348 322.481 952.717 323.243 953.934C324.005 955.151 323.636 956.756 322.419 957.518Z" fill="#FFA600"/>
<path d="M325.305 922.557C324.415 923.114 323.243 922.845 322.686 921.955C322.129 921.066 322.399 919.893 323.288 919.336C324.177 918.78 325.35 919.049 325.907 919.939C326.464 920.828 326.194 922 325.305 922.557Z" fill="#B8E4FA"/>
<path d="M346.288 1007.7C344.743 1008.67 342.707 1008.2 341.739 1006.65C340.772 1005.11 341.24 1003.07 342.785 1002.1C344.33 1001.14 346.366 1001.61 347.333 1003.15C348.301 1004.7 347.832 1006.73 346.288 1007.7Z" fill="#FF73A7"/>
<path d="M247.194 959.667C245.649 960.635 243.613 960.167 242.646 958.622C241.679 957.077 242.147 955.041 243.691 954.074C245.236 953.106 247.272 953.574 248.24 955.119C249.207 956.664 248.739 958.7 247.194 959.667Z" fill="#FF73A7"/>
<path d="M275.625 962.868C274.736 963.425 273.563 963.155 273.006 962.266C272.449 961.376 272.719 960.204 273.608 959.647C274.498 959.09 275.67 959.36 276.227 960.249C276.784 961.138 276.514 962.311 275.625 962.868Z" fill="#B8E4FA"/>
<path d="M246.293 1014.39C245.404 1014.94 244.231 1014.67 243.674 1013.78C243.117 1012.89 243.387 1011.72 244.276 1011.16C245.166 1010.61 246.338 1010.88 246.895 1011.77C247.452 1012.66 247.182 1013.83 246.293 1014.39Z" fill="#FFA600"/>
<path d="M299.438 1019.93C298.548 1020.49 297.376 1020.22 296.819 1019.33C296.262 1018.44 296.531 1017.26 297.421 1016.71C298.31 1016.15 299.483 1016.42 300.04 1017.31C300.596 1018.2 300.327 1019.37 299.438 1019.93Z" fill="#8118B4"/>
<path d="M274.242 995.708C273.353 996.264 272.18 995.995 271.623 995.106C271.067 994.216 271.336 993.044 272.226 992.487C273.115 991.93 274.287 992.199 274.844 993.089C275.401 993.978 275.132 995.151 274.242 995.708Z" fill="#8118B4"/>
<path d="M460.802 576.494C459.397 577.373 457.546 576.948 456.667 575.543C455.788 574.139 456.213 572.288 457.617 571.409C459.022 570.529 460.873 570.955 461.752 572.359C462.632 573.763 462.206 575.615 460.802 576.494Z" fill="#8118B4"/>
<path d="M475.355 677.933C473.997 678.783 472.208 678.372 471.358 677.015C470.508 675.657 470.919 673.868 472.276 673.018C473.634 672.168 475.423 672.579 476.273 673.936C477.123 675.294 476.712 677.083 475.355 677.933Z" fill="#FFA600"/>
<path d="M504.621 700.549C503.638 701.165 502.342 700.867 501.727 699.884C501.111 698.901 501.409 697.605 502.392 696.989C503.375 696.374 504.671 696.672 505.286 697.655C505.902 698.638 505.604 699.934 504.621 700.549Z" fill="#B8E4FA"/>
<path d="M416.012 670.964C414.327 672.019 412.106 671.509 411.05 669.823C409.995 668.138 410.506 665.917 412.191 664.862C413.876 663.807 416.098 664.317 417.153 666.002C418.208 667.688 417.697 669.909 416.012 670.964Z" fill="#FF73A7"/>
<path d="M373.834 656.552C373.085 657.02 372.098 656.793 371.629 656.045C371.16 655.296 371.387 654.308 372.136 653.839C372.885 653.37 373.872 653.597 374.341 654.346C374.81 655.095 374.583 656.083 373.834 656.552Z" fill="#B8E4FA"/>
<path d="M496.762 630.905C495.779 631.52 494.483 631.222 493.867 630.239C493.252 629.256 493.55 627.961 494.533 627.345C495.516 626.729 496.811 627.027 497.427 628.01C498.042 628.993 497.744 630.289 496.762 630.905Z" fill="#B8E4FA"/>
<path d="M466.437 573.434C465.454 574.049 464.159 573.752 463.543 572.769C462.928 571.786 463.225 570.49 464.208 569.874C465.191 569.259 466.487 569.557 467.103 570.54C467.718 571.523 467.42 572.818 466.437 573.434Z" fill="#FFA600"/>
<path d="M430.004 619.256C429.021 619.872 427.725 619.574 427.109 618.591C426.494 617.608 426.792 616.312 427.775 615.696C428.758 615.081 430.054 615.379 430.669 616.362C431.285 617.345 430.987 618.641 430.004 619.256Z" fill="#8118B4"/>
<path d="M492.918 511.902C491.233 512.957 489.012 512.446 487.957 510.761C486.901 509.076 487.412 506.854 489.097 505.799C490.782 504.744 493.004 505.255 494.059 506.94C495.114 508.625 494.603 510.846 492.918 511.902Z" fill="#FF73A7"/>
<path d="M424.931 789.974C423.62 790.795 421.892 790.398 421.072 789.087C420.251 787.777 420.648 786.049 421.959 785.228C423.27 784.407 424.997 784.805 425.818 786.115C426.639 787.426 426.242 789.154 424.931 789.974Z" fill="#8118B4"/>
<path d="M493.351 797.868C492.882 798.161 492.265 798.02 491.972 797.552C491.679 797.083 491.821 796.466 492.289 796.173C492.757 795.88 493.374 796.022 493.667 796.49C493.961 796.958 493.819 797.575 493.351 797.868Z" fill="#FF73A7"/>
<path d="M439.407 878.484C438.19 879.247 436.586 878.878 435.824 877.661C435.062 876.444 435.431 874.839 436.648 874.077C437.865 873.315 439.469 873.684 440.231 874.901C440.993 876.118 440.625 877.722 439.407 878.484Z" fill="#FFA600"/>
<path d="M466.199 899.227C465.31 899.784 464.137 899.515 463.581 898.625C463.024 897.736 463.293 896.563 464.183 896.006C465.072 895.45 466.244 895.719 466.801 896.608C467.358 897.498 467.089 898.67 466.199 899.227Z" fill="#B8E4FA"/>
<path d="M385.342 872.222C383.798 873.189 381.761 872.721 380.794 871.177C379.827 869.632 380.295 867.596 381.84 866.628C383.384 865.661 385.421 866.129 386.388 867.674C387.355 869.219 386.887 871.255 385.342 872.222Z" fill="#FF73A7"/>
<path d="M479.135 814.554C477.591 815.521 475.554 815.053 474.587 813.509C473.62 811.964 474.088 809.927 475.633 808.96C477.178 807.993 479.214 808.461 480.181 810.006C481.148 811.551 480.68 813.587 479.135 814.554Z" fill="#FF73A7"/>
<path d="M346.79 859.079C346.087 859.519 345.162 859.306 344.722 858.604C344.282 857.902 344.495 856.976 345.197 856.536C345.9 856.097 346.825 856.309 347.265 857.012C347.704 857.714 347.492 858.639 346.79 859.079Z" fill="#B8E4FA"/>
<path d="M459.055 835.624C458.165 836.181 456.993 835.911 456.436 835.022C455.879 834.132 456.149 832.96 457.038 832.403C457.927 831.846 459.1 832.116 459.657 833.005C460.214 833.894 459.944 835.067 459.055 835.624Z" fill="#B8E4FA"/>
<path d="M431.367 783.112C430.478 783.669 429.305 783.399 428.748 782.51C428.192 781.62 428.461 780.448 429.351 779.891C430.24 779.334 431.412 779.604 431.969 780.493C432.526 781.383 432.257 782.555 431.367 783.112Z" fill="#FFA600"/>
<path d="M398.098 824.946C397.208 825.503 396.036 825.233 395.479 824.344C394.922 823.454 395.192 822.282 396.081 821.725C396.97 821.168 398.143 821.438 398.7 822.327C399.257 823.217 398.987 824.389 398.098 824.946Z" fill="#8118B4"/>
<path d="M508.012 662.442C507.122 662.999 505.95 662.729 505.393 661.84C504.836 660.951 505.106 659.778 505.995 659.221C506.884 658.664 508.057 658.934 508.614 659.823C509.171 660.713 508.901 661.885 508.012 662.442Z" fill="#B8E4FA"/>
<path d="M454.17 730.962C452.626 731.93 450.589 731.462 449.622 729.917C448.655 728.372 449.123 726.336 450.668 725.369C452.213 724.401 454.249 724.869 455.216 726.414C456.183 727.959 455.715 729.995 454.17 730.962Z" fill="#FF73A7"/>
<path d="M481.402 720.753C480.513 721.309 479.341 721.04 478.784 720.151C478.227 719.261 478.496 718.089 479.386 717.532C480.275 716.975 481.448 717.244 482.004 718.134C482.561 719.023 482.292 720.196 481.402 720.753Z" fill="#B8E4FA"/>
<path d="M478.238 779.956C477.349 780.513 476.177 780.243 475.62 779.354C475.063 778.464 475.332 777.292 476.222 776.735C477.111 776.178 478.283 776.448 478.84 777.337C479.397 778.226 479.128 779.399 478.238 779.956Z" fill="#FFA600"/>
<path d="M494.973 750.719C494.083 751.276 492.911 751.007 492.354 750.117C491.797 749.228 492.067 748.055 492.956 747.499C493.845 746.942 495.018 747.211 495.575 748.101C496.132 748.99 495.862 750.162 494.973 750.719Z" fill="#8118B4"/>
<path d="M804.538 143.929C762.551 142.258 720.448 142.663 678.411 145.624C636.458 148.531 594.497 153.686 553.186 162.327C532.53 166.648 512.045 171.806 491.942 178.14C471.839 184.475 451.98 191.954 432.929 201.287C413.932 210.705 395.55 221.86 380.033 236.65C376.157 240.257 372.492 244.203 369.125 248.435C365.758 252.667 362.581 257.016 360.031 261.799C354.738 271.248 351.302 281.776 350.686 292.663C350.07 303.55 352.283 314.434 356.468 324.321C358.518 329.29 361.129 334.026 364.027 338.465C366.924 342.904 370.129 347.269 373.567 351.251C387.392 367.49 404.532 380.355 422.36 391.491C440.326 402.659 459.233 411.94 478.67 420.181C498.053 428.337 517.881 435.508 538.1 441.607C618.84 465.973 702.992 477.701 787.265 481.33C829.422 482.896 871.695 482.384 913.901 479.317C924.437 478.62 935.036 477.646 945.529 476.503C956.022 475.361 966.547 474.08 976.965 472.629C997.94 469.761 1018.83 466.002 1039.52 461.543C1060.2 457.085 1080.79 451.513 1100.95 444.903C1121.12 438.293 1140.99 430.454 1160.05 420.76C1178.97 411.035 1197.36 399.519 1212.81 384.422C1216.71 380.677 1220.33 376.646 1223.69 372.414C1227.06 368.182 1230.13 363.664 1232.68 358.881C1237.83 349.4 1241.16 338.702 1241.64 327.784C1242.12 316.865 1239.74 306.087 1235.52 296.339C1233.39 291.422 1230.74 286.824 1227.85 282.385C1224.95 277.946 1221.71 273.719 1218.19 269.79C1204.22 253.88 1187.01 241.291 1169.12 230.43C1151.15 219.622 1132.12 210.533 1112.68 202.652C1093.23 194.771 1073.31 188.014 1053.28 182.031C1013.05 170.171 971.842 161.641 930.317 155.432C888.399 149.351 846.526 145.601 804.538 143.929ZM804.538 143.929C846.579 145.686 888.421 149.573 929.914 155.92C971.408 162.267 1012.44 171.264 1052.52 183.452C1072.6 189.52 1092.23 196.574 1111.48 204.699C1130.73 212.824 1149.41 222.125 1167.13 233.092C1184.68 244.165 1201.44 256.797 1214.76 272.411C1218.14 276.309 1221.19 280.419 1223.9 284.741C1226.6 289.064 1229.14 293.493 1231.03 298.208C1234.98 307.533 1236.94 317.633 1236.38 327.661C1235.73 337.742 1232.53 347.528 1227.59 356.405C1225.19 360.859 1222.13 365.016 1218.96 369.005C1215.8 372.993 1212.25 376.748 1208.46 380.302C1193.43 394.551 1175.38 405.494 1156.78 414.785C1137.98 423.959 1118.43 431.363 1098.41 437.644C1078.39 443.925 1058.08 448.977 1037.56 453.33C996.556 461.897 954.818 467.03 913.003 469.969C871.189 472.908 829.308 473.293 787.458 471.653C745.608 470.012 703.873 466.295 662.57 460.064C621.267 453.834 580.249 445.42 540.299 433.623C520.323 427.725 500.591 421.085 481.367 413.183C462.196 405.365 443.363 396.392 425.631 385.785C407.984 375.126 391.247 362.717 377.729 347.347C374.398 343.534 371.267 339.477 368.391 335.26C365.6 330.991 363.116 326.647 361.141 321.985C357.105 312.713 354.977 302.719 355.403 292.659C355.829 282.599 358.916 272.644 363.806 263.683C366.155 259.144 369.162 254.901 372.275 250.828C375.473 246.702 378.968 242.862 382.622 239.276C397.577 224.721 415.545 213.47 434.161 203.819C452.884 194.338 472.529 186.52 492.473 179.931C512.417 173.343 532.828 167.877 553.377 163.387C594.477 154.407 636.395 148.807 678.326 145.677C720.384 142.939 762.519 142.395 804.538 143.929Z" fill="url(#paint3_linear)"/>
<path d="M899.926 114.054C825.242 105.954 749.66 101.13 673.329 100.197C597.083 99.211 520.097 101.755 443.063 109.875C404.546 113.935 365.967 119.214 327.611 126.359C289.256 133.503 250.955 142.619 213.515 154.617C176.182 166.785 139.296 181.741 106.071 202.544C97.7651 207.745 89.8092 213.317 82.3095 219.428C74.7568 225.456 67.607 231.938 61.221 238.886C48.449 252.783 38.477 268.702 33.3924 285.454C28.3925 302.153 28.4279 319.357 32.3843 335.285C34.3201 343.276 37.2944 350.853 40.8303 358.195C44.3661 365.538 48.5484 372.594 53.324 379.279C72.3945 406.155 98.3404 428.373 126.383 448.097C154.595 467.715 185.243 484.629 216.992 499.909C248.826 515.136 281.899 528.761 315.818 540.912C451.697 589.273 598.478 618.302 748.142 634.788C823.133 642.813 899.139 647.372 975.809 648.093C994.921 648.278 1014.15 648.273 1033.47 647.854C1052.71 647.488 1072.01 646.847 1091.29 645.983C1129.94 644.202 1168.65 641.202 1207.37 636.898C1246.09 632.594 1284.79 626.763 1323.33 619.152C1361.81 611.457 1400.2 601.927 1437.77 589.378C1475.15 576.711 1512.13 561.343 1545.26 540.009C1553.51 534.724 1561.44 528.929 1568.94 522.818C1576.44 516.706 1583.54 510.138 1589.82 503.021C1602.49 488.955 1612.21 472.835 1617.02 456.019C1621.75 439.256 1621.4 422.127 1617.25 406.443C1615.23 398.505 1612.08 391.035 1608.46 383.745C1604.76 376.508 1600.49 369.505 1595.68 362.958C1576.29 336.517 1550.03 314.734 1521.86 295.561C1493.38 276.462 1462.64 259.963 1430.63 245.202C1398.61 230.442 1365.41 217.368 1331.48 205.577C1263.66 181.857 1192.79 163.462 1120.64 148.469C1048.43 133.393 974.641 122.016 899.926 114.054ZM899.926 114.054C974.578 122.292 1048.28 133.721 1120.37 148.989C1192.38 164.31 1262.78 183.469 1330.24 207.539C1363.96 219.574 1396.76 233.136 1428.35 248.161C1459.91 263.325 1490.14 280.143 1517.87 299.359C1545.42 318.681 1570.8 340.549 1589.2 366.546C1593.81 372.977 1597.84 379.779 1601.21 386.867C1604.62 393.818 1607.44 401.14 1609.19 408.654C1612.93 423.661 1612.89 439.614 1608.31 455.104C1603.65 470.647 1594.37 485.421 1582.29 498.533C1576.27 505.131 1569.5 511.263 1562.31 516.94C1555.1 522.755 1547.48 528.114 1539.52 533.103C1507.48 553.163 1471.38 567.864 1434.6 579.798C1397.73 591.563 1359.96 600.583 1321.91 607.653C1283.86 614.723 1245.64 620.012 1207.35 624.051C1130.7 632.043 1054.16 634.544 978.33 633.653C902.36 632.731 827.138 627.917 752.73 619.88C678.375 611.928 604.919 600.7 533.038 585.772C461.243 570.79 390.738 552.404 323.292 528.918C289.638 517.19 256.629 504.233 224.944 489.62C193.26 475.008 162.845 458.656 134.803 439.875C107.069 421.02 81.3461 399.724 62.6265 374.162C57.9254 367.785 53.7859 361.174 50.2928 354.276C46.7996 347.379 43.8151 340.162 41.8904 332.755C37.9031 317.907 37.6885 302.114 41.9898 286.56C46.429 271.038 55.4583 256.063 67.298 242.75C73.2602 236.067 79.9862 229.85 87.1468 223.951C94.3075 218.051 101.956 212.554 109.87 207.481C141.812 186.89 178.009 171.776 214.823 159.344C251.828 147.028 289.694 137.594 327.869 129.973C366.044 122.352 404.527 116.543 442.938 112.313C519.844 103.801 596.798 100.451 673.107 101.162C749.565 101.544 825.264 106.177 899.926 114.054Z" fill="url(#paint4_linear)"/>
</g>
<path d="M360.433 863.734C361.849 858.835 360.733 855.169 366.535 847.288C370.664 841.635 372.905 834.096 371.352 827.282C369.969 821.305 378.225 818.849 380.955 813.6C383.622 808.626 389.27 806.152 392.181 801.38C394.859 796.989 394.8 790.3 397.67 786.026C418.368 755.958 445.482 729.542 478.367 708.95C489.894 701.733 501.782 695.469 513.893 690.127C517.686 688.46 521.715 689.241 525.615 687.743C528.73 686.5 531.716 682.979 534.938 681.905C552.285 675.881 570.079 671.7 587.959 669.353C593.195 668.671 599.027 671.39 604.337 671.015C611.566 670.5 618.188 666.943 625.375 666.927C645.822 666.984 666.038 669.31 685.97 673.819C686.309 673.607 686.595 673.31 686.881 673.013C689.561 670.509 691.464 665.07 693.933 664.114C695.892 661.589 704.255 661.19 713.765 663.377C724.24 665.785 732.045 670.336 731.317 673.506C732.254 679.526 731.431 684.053 732.463 688.716C782.852 710.023 827.508 746.481 858.767 796.403C939.646 925.571 900.482 1095.92 771.315 1176.8C642.147 1257.68 471.794 1218.52 390.915 1089.35C347.11 1019.2 338.552 937.136 360.433 863.734Z" fill="url(#paint5_linear)"/>
<path opacity="0.3" d="M360.433 863.734C361.85 858.836 360.734 855.169 366.536 847.289C370.665 841.635 372.906 834.097 371.353 827.282C369.97 821.305 378.225 818.85 380.956 813.6C383.623 808.627 389.271 806.152 392.182 801.38C394.86 796.989 394.801 790.301 397.67 786.027C418.368 755.959 445.482 729.542 478.368 708.951C489.895 701.733 501.783 695.469 513.894 690.128C517.687 688.46 521.716 689.241 525.615 687.743C527.215 687.096 528.804 685.865 530.309 684.687C534.957 704.547 534.163 730.412 518.564 749.028C497.968 773.605 442.233 786.912 440.303 848.648C438.95 892.088 478.29 999.009 515.794 1051.74C528.731 1069.96 452.615 1098.38 415.673 1123.05C406.676 1112.64 398.451 1101.39 390.915 1089.35C347.111 1019.2 338.552 937.136 360.433 863.734Z" fill="#392E66"/>
<path opacity="0.2" d="M360.432 863.734C361.848 858.835 360.732 855.169 366.534 847.288C370.664 841.635 372.905 834.096 371.351 827.282C369.968 821.305 378.224 818.849 380.954 813.6C383.621 808.626 389.269 806.152 392.18 801.379C394.858 796.989 394.8 790.3 397.669 786.026C402.443 779.143 407.547 772.408 412.948 765.958C423.865 752.869 413.275 764.22 402.557 800.427C360.074 943.244 415.741 1015.76 453.192 1068.41C463.465 1082.74 434.326 1096.5 409.719 1115.8C403.076 1107.46 396.751 1098.67 390.914 1089.35C347.109 1019.2 338.551 937.135 360.432 863.734Z" fill="url(#paint6_linear)"/>
<path opacity="0.3" d="M566.131 1036.98C566.131 1036.98 388.875 841.324 492.114 796.856C547.341 773.13 570.917 750.108 580.517 706.46C583.579 692.508 593.596 679.864 603.341 670.931C603.701 670.941 603.924 670.92 604.284 670.93C611.513 670.416 618.135 666.859 625.322 666.843C625.905 666.832 626.488 666.82 626.986 666.862C610.564 676.437 600.07 689.261 597.614 705.312C591.762 743.074 646.335 812.14 779.006 788.297C844.324 776.54 566.131 1036.98 566.131 1036.98Z" fill="#392E66"/>
</g>
<path d="M504.214 626.695L500.589 627.313C500.367 627.334 500.197 627.44 500.134 627.716L498.706 631.088C498.526 631.555 497.805 631.534 497.625 631.057L495.862 627.677C495.756 627.508 495.565 627.391 495.427 627.36L491.696 626.864C491.197 626.822 490.911 626.176 491.281 625.826L493.77 623.206C493.94 623.1 493.918 622.877 493.897 622.654L493.141 618.998C493.046 618.468 493.554 618.15 494.021 618.329L497.329 620.033C497.52 620.15 497.743 620.128 497.912 620.022L501.154 618.228C501.578 617.963 502.066 618.365 502.024 618.863L501.614 622.542C501.635 622.765 501.656 622.987 501.847 623.104L504.605 625.624C504.871 626.048 504.744 626.599 504.214 626.695Z" fill="url(#paint7_linear)"/>
<path opacity="0.05" d="M504.519 625.676L501.761 623.156C501.57 623.04 501.549 622.817 501.528 622.594L501.938 618.916C502.001 618.64 501.789 618.301 501.513 618.238C501.112 619.669 498.844 620.381 498.591 621.484C498.517 622.12 498.39 622.671 498.073 623.106C497.723 623.679 497.183 624.135 497.067 625.269C496.962 626.043 498.289 628.162 498.236 629.021C498.163 629.657 497.93 630.039 497.899 631.12C497.867 631.258 497.92 631.342 497.973 631.427C498.196 631.406 498.366 631.3 498.482 631.109L499.91 627.737C500.027 627.546 500.196 627.44 500.366 627.334L503.99 626.716C504.743 626.599 504.87 626.047 504.519 625.676Z" fill="#351656"/>
<path d="M308.585 715.728L302.502 716.941C302.194 717.016 301.855 717.228 301.792 717.504L299.518 723.293C299.19 724.089 298.162 724.142 297.684 723.38L294.372 717.902C294.213 717.648 293.916 717.362 293.556 717.352L287.301 716.784C286.442 716.732 286.028 715.694 286.6 715.1L290.645 710.443C290.847 710.199 290.995 709.87 290.867 709.478L289.293 703.384C289.123 702.547 289.864 701.847 290.66 702.175L296.439 704.809C296.768 704.958 297.128 704.968 297.382 704.809L302.637 701.518C303.315 701.094 304.27 701.676 304.217 702.535L303.735 708.736C303.725 709.096 303.799 709.404 304.043 709.605L308.891 713.767C309.644 714.593 309.337 715.611 308.585 715.728Z" fill="url(#paint8_linear)"/>
<path opacity="0.05" d="M308.914 713.989L304.066 709.827C303.822 709.626 303.694 709.234 303.758 708.958L304.24 702.757C304.282 702.259 303.879 701.803 303.55 701.655C303.065 704.083 299.112 705.496 298.923 707.266C298.754 708.316 298.67 709.312 298.204 710.076C297.591 711.168 296.764 711.922 296.713 713.724C296.703 715.027 298.964 718.449 298.923 719.891C298.892 720.972 298.458 721.598 298.597 723.516C298.565 723.654 298.672 723.824 298.64 723.962C299 723.972 299.339 723.76 299.519 723.293L301.793 717.504C301.942 717.175 302.196 717.016 302.503 716.941L308.586 715.728C309.339 715.611 309.646 714.593 308.914 713.989Z" fill="#351656"/>
<defs>
<linearGradient id="paint0_linear" x1="483.055" y1="302.467" x2="838.562" y2="870.23" gradientUnits="userSpaceOnUse">
<stop offset="0.611311" stop-color="#231E33"/>
<stop offset="1" stop-color="#522359"/>
</linearGradient>
<linearGradient id="paint1_linear" x1="483.055" y1="302.467" x2="838.562" y2="870.23" gradientUnits="userSpaceOnUse">
<stop offset="0.611311" stop-color="#231E33"/>
<stop offset="1" stop-color="#522359"/>
</linearGradient>
<linearGradient id="paint2_linear" x1="783.983" y1="603.911" x2="458.613" y2="886.568" gradientUnits="userSpaceOnUse">
<stop offset="0.611311" stop-color="#231E33"/>
<stop offset="1" stop-color="#522359"/>
</linearGradient>
<linearGradient id="paint3_linear" x1="643.82" y1="67.481" x2="948.712" y2="554.409" gradientUnits="userSpaceOnUse">
<stop stop-color="#370D24"/>
<stop offset="0.502762" stop-color="#602A6B"/>
<stop offset="1" stop-color="#EA4C89"/>
</linearGradient>
<linearGradient id="paint4_linear" x1="546.389" y1="-73.1625" x2="1103.53" y2="816.627" gradientUnits="userSpaceOnUse">
<stop stop-color="#370D24"/>
<stop offset="0.502762" stop-color="#602A6B"/>
<stop offset="1" stop-color="#EA4C89"/>
</linearGradient>
<linearGradient id="paint5_linear" x1="478.367" y1="708.95" x2="771.315" y2="1176.8" gradientUnits="userSpaceOnUse">
<stop stop-color="#623997"/>
<stop offset="1" stop-color="#662A67"/>
</linearGradient>
<linearGradient id="paint6_linear" x1="334.039" y1="812.95" x2="491.577" y2="1064.55" gradientUnits="userSpaceOnUse">
<stop offset="0.611311" stop-color="#231E33"/>
<stop offset="1" stop-color="#522359"/>
</linearGradient>
<linearGradient id="paint7_linear" x1="491.782" y1="627.468" x2="503.129" y2="620.363" gradientUnits="userSpaceOnUse">
<stop stop-color="#FBB40D"/>
<stop offset="1" stop-color="#FB710D"/>
</linearGradient>
<linearGradient id="paint8_linear" x1="287.249" y1="717.507" x2="306.343" y2="705.552" gradientUnits="userSpaceOnUse">
<stop stop-color="#FBB40D"/>
<stop offset="1" stop-color="#FB710D"/>
</linearGradient>
</defs>
</svg>
