<svg width="414" height="555" viewBox="0 0 414 555" fill="none" xmlns="http://www.w3.org/2000/svg">
<mask id="mask0" mask-type="alpha" maskUnits="userSpaceOnUse" x="-247" y="166" width="495" height="494">
<circle cx="0.843424" cy="412.942" r="214.751" transform="rotate(9.38935 0.843424 412.942)" fill="url(#paint0_linear)"/>
</mask>
<g mask="url(#mask0)">
<circle cx="0.843424" cy="412.942" r="214.751" transform="rotate(9.38935 0.843424 412.942)" fill="url(#paint1_linear)"/>
<path opacity="0.3" d="M121.334 356.974C116.806 351.331 116.265 345.916 104.37 338.767C95.8812 333.621 88.8334 324.97 87.1455 315.191C85.6919 306.602 73.5497 307.905 67.1113 302.522C60.9063 297.465 52.1656 297.316 45.7513 292.656C39.85 288.37 36.2751 279.574 30.1876 275.545C-13.31 247.48 -63.2092 227.714 -117.479 218.74C-136.502 215.594 -155.476 213.896 -174.24 213.528C-180.114 213.421 -184.958 216.65 -190.879 216.822C-193.326 216.85 -196.077 216.107 -198.688 215.387C-193.928 243.955 -178.768 277.41 -148.195 293.261C-107.828 314.186 -27.6377 301.105 8.59273 380.938C34.0779 437.115 40.975 598.752 20.693 688.385C13.7081 719.329 128.823 714.901 190.624 726.992C196.713 708.422 201.332 689.178 204.622 669.283C223.642 553.387 190.037 441.169 121.334 356.974Z" fill="#392E66"/>
<path opacity="0.3" d="M291.857 305.816C287.329 300.173 286.788 294.758 274.893 287.609C266.404 282.463 259.356 273.813 257.668 264.033C256.215 255.444 244.073 256.747 237.634 251.364C231.429 246.308 222.688 246.158 216.274 241.499C210.373 237.212 206.798 228.416 200.71 224.387C157.213 196.323 107.314 176.556 53.0434 167.582C34.0209 164.436 15.0464 162.738 -3.71703 162.371C-9.59079 162.263 -14.4356 165.492 -20.3557 165.665C-22.803 165.692 -25.5541 164.949 -28.1653 164.229C-23.4053 192.797 -8.24501 226.252 22.3277 242.103C62.695 263.028 142.885 249.947 179.116 329.78C204.601 385.958 211.498 547.594 191.216 637.227C184.231 668.171 299.345 663.744 361.147 675.834C367.235 657.265 371.855 638.021 375.145 618.125C394.165 502.23 360.56 390.011 291.857 305.816Z" fill="#392E66"/>
<path opacity="0.3" d="M-23.8307 686.953C-23.8307 686.953 77.874 399.726 -51.6899 398.306C-120.972 397.612 -156.272 383.586 -185.86 341.375C-195.312 327.879 -211.581 318.872 -225.913 313.694C-226.291 313.866 -226.538 313.942 -226.916 314.113C-234.835 316.782 -243.458 315.941 -251.111 319.121C-251.736 319.368 -252.361 319.616 -252.872 319.882C-231.152 322.772 -214.296 331.759 -204.558 347.759C-181.569 385.369 -208.962 483.202 -360.68 516.841C-435.383 533.383 -23.8307 686.953 -23.8307 686.953Z" fill="#392E66"/>
</g>
<defs>
<linearGradient id="paint0_linear" x1="0.843414" y1="198.191" x2="0.843414" y2="627.693" gradientUnits="userSpaceOnUse">
<stop stop-color="#623997"/>
<stop offset="1" stop-color="#662A67"/>
</linearGradient>
<linearGradient id="paint1_linear" x1="0.843414" y1="198.191" x2="0.843414" y2="627.693" gradientUnits="userSpaceOnUse">
<stop stop-color="#623997"/>
<stop offset="1" stop-color="#662A67"/>
</linearGradient>
</defs>
</svg>
